<svg width="28" height="28" viewBox="0 0 28 28" fill="none" xmlns="http://www.w3.org/2000/svg">
<path d="M10.1558 18.1215C10.2488 18.1212 10.3417 18.1208 10.4347 18.1203C10.6862 18.1193 10.9378 18.1194 11.1893 18.1197C11.3997 18.1199 11.6101 18.1195 11.8205 18.1192C12.3171 18.1184 12.8137 18.1185 13.3104 18.1191C13.8217 18.1198 14.3331 18.119 14.8445 18.1175C15.2844 18.1162 15.7244 18.1159 16.1643 18.1162C16.4266 18.1164 16.689 18.1162 16.9514 18.1153C17.1982 18.1144 17.445 18.1146 17.6919 18.1157C17.7821 18.1159 17.8724 18.1157 17.9626 18.1151C18.5927 18.1113 19.1458 18.1595 19.6297 18.6081C20.1845 19.2558 19.994 20.1778 19.9336 20.9613C19.9251 21.0687 19.9167 21.1762 19.9082 21.2836C19.8995 21.3959 19.8908 21.5083 19.8822 21.6206C19.8642 21.8544 19.8459 22.0882 19.8275 22.322C19.804 22.6213 19.7809 22.9205 19.7579 23.2198C19.7401 23.4511 19.7221 23.6824 19.7041 23.9136C19.6955 24.024 19.687 24.1344 19.6785 24.2448C19.6666 24.3987 19.6545 24.5527 19.6423 24.7066C19.6371 24.7744 19.6371 24.7744 19.6318 24.8436C19.6131 25.0771 19.5866 25.3055 19.5439 25.5361C19.5864 25.5355 19.629 25.5349 19.6727 25.5342C20.0748 25.5286 20.4768 25.5243 20.8788 25.5216C21.0855 25.5201 21.2921 25.5182 21.4988 25.515C21.6985 25.5119 21.8981 25.5103 22.0979 25.5095C22.2105 25.5088 22.3232 25.5066 22.4358 25.5044C22.8467 25.5043 23.1541 25.5275 23.4639 25.8161C23.7456 26.1772 23.7874 26.4892 23.7439 26.9361C23.6341 27.3097 23.4091 27.5279 23.0806 27.7266C22.9313 27.7879 22.8151 27.7903 22.6538 27.7907C22.5912 27.7911 22.5286 27.7915 22.4641 27.7919C22.3953 27.7917 22.3266 27.7916 22.2557 27.7915C22.1461 27.7919 22.1461 27.7919 22.0343 27.7923C21.8314 27.7931 21.6285 27.7932 21.4255 27.7932C21.2067 27.7933 20.9879 27.794 20.7691 27.7947C20.2905 27.796 19.812 27.7964 19.3334 27.7967C19.0346 27.7969 18.7358 27.7972 18.437 27.7976C17.6098 27.7987 16.7826 27.7996 15.9553 27.7998C15.9024 27.7998 15.8494 27.7998 15.7949 27.7998C15.6875 27.7999 15.5802 27.7999 15.4729 27.7999C15.4196 27.7999 15.3663 27.7999 15.3114 27.7999C15.2581 27.7999 15.2047 27.8 15.1497 27.8C14.2853 27.8002 13.4209 27.8017 12.5564 27.8038C11.669 27.8059 10.7815 27.807 9.89406 27.807C9.39576 27.807 8.89747 27.8075 8.39918 27.8091C7.97487 27.8105 7.55057 27.8109 7.12626 27.8101C6.9098 27.8097 6.69336 27.8097 6.4769 27.811C6.24213 27.8124 6.00741 27.8115 5.77263 27.8105C5.67022 27.8116 5.67022 27.8116 5.56575 27.8128C5.16851 27.8088 4.89727 27.7602 4.59195 27.4961C4.29735 27.186 4.22978 26.8941 4.23823 26.4763C4.27349 26.1654 4.39532 25.9525 4.61995 25.7391C4.87065 25.5761 5.02424 25.5222 5.3281 25.5234C5.39759 25.5234 5.46709 25.5234 5.53869 25.5234C5.61423 25.524 5.68978 25.5246 5.76532 25.5252C5.84285 25.5254 5.92037 25.5255 5.99789 25.5256C6.20154 25.5261 6.40517 25.5272 6.60882 25.5284C6.81678 25.5296 7.02474 25.5301 7.2327 25.5306C7.64045 25.5318 8.0482 25.5337 8.45595 25.5361C8.44529 25.4388 8.44529 25.4388 8.43442 25.3396C8.36595 24.7071 8.30846 24.0745 8.25951 23.4403C8.25214 23.3457 8.24477 23.2512 8.23739 23.1567C8.22214 22.9607 8.207 22.7647 8.19194 22.5687C8.1728 22.3197 8.15323 22.0708 8.13357 21.8219C8.11828 21.6275 8.10326 21.433 8.08832 21.2386C8.08123 21.1469 8.07404 21.0551 8.06675 20.9634C7.9326 19.2709 7.9326 19.2709 8.23195 18.8161C8.36845 18.6586 8.36845 18.6586 8.51195 18.5361C8.57605 18.4772 8.57605 18.4772 8.64145 18.4171C9.11181 18.0889 9.60556 18.1198 10.1558 18.1215ZM13.1109 21.1611C12.8997 21.4718 12.8506 21.7179 12.899 22.0866C12.975 22.3856 13.1325 22.6253 13.3741 22.8173C13.6621 22.9837 13.9543 23.0094 14.2799 22.9601C14.6233 22.8682 14.8197 22.6727 15.0005 22.3719C15.1402 22.064 15.162 21.758 15.0639 21.4341C14.9345 21.1408 14.6996 20.9711 14.4304 20.8111C13.9254 20.6937 13.4675 20.7661 13.1109 21.1611Z" fill="currentColor"/>
<path d="M16.569 1.0361C16.6465 1.10088 16.7235 1.16619 16.8 1.2321C16.8547 1.27476 16.8547 1.27476 16.9105 1.31829C17.7802 2.02027 18.2894 3.07483 18.4141 4.17484C18.4374 4.49769 18.4351 4.82156 18.4345 5.1451C18.4345 5.18381 18.4344 5.22253 18.4344 5.26241C18.4291 7.03601 18.0503 8.69288 16.968 10.1361C16.9129 10.2105 16.9129 10.2105 16.8567 10.2864C16.6426 10.5633 16.4095 10.8228 16.1735 11.0811C16.1456 11.1118 16.1176 11.1425 16.0888 11.1741C15.6364 11.6617 15.0726 11.9389 14.399 11.981C14.3597 11.982 14.3205 11.9831 14.28 11.9841C14.2373 11.9863 14.1945 11.9884 14.1505 11.9907C13.4302 12.0114 12.7146 11.8892 12.1485 11.4171C12.0736 11.3462 12.0002 11.2737 11.928 11.2001C11.885 11.1564 11.842 11.1126 11.7976 11.0675C10.035 9.19957 9.50404 7.02087 9.56749 4.50903C9.6218 3.25533 10.134 2.21166 11.032 1.3441C12.5675 -0.0161803 14.9047 -0.229931 16.569 1.0361Z" fill="currentColor"/>
<path d="M11.3119 12.3199C11.466 12.3915 11.466 12.3915 11.6239 12.4923C11.7123 12.5478 11.7123 12.5478 11.8024 12.6045C11.8332 12.6243 11.864 12.6441 11.8957 12.6646C11.9919 12.7265 12.0886 12.7874 12.1856 12.8481C12.4377 13.006 12.6888 13.1656 12.9399 13.3252C13.0921 13.4214 13.2449 13.5165 13.3979 13.6114C13.4429 13.6404 13.4878 13.6694 13.534 13.6993C13.576 13.7252 13.618 13.7511 13.6613 13.7779C13.7152 13.812 13.7152 13.812 13.7701 13.8468C13.9414 13.9065 14.0497 13.8787 14.2239 13.8319C14.3969 13.747 14.3969 13.747 14.5702 13.6359C14.6023 13.6162 14.6344 13.5965 14.6674 13.5762C14.7356 13.5342 14.8037 13.4919 14.8715 13.4495C14.9772 13.3834 15.0832 13.3181 15.1893 13.253C15.4832 13.0724 15.7759 12.8901 16.068 12.7066C16.1059 12.6832 16.1437 12.6597 16.1828 12.6355C16.2772 12.577 16.3712 12.5176 16.465 12.4581C16.6599 12.3621 16.8063 12.3219 17.0239 12.3199C17.151 12.3914 17.151 12.3914 17.2479 12.5439C17.2727 12.6332 17.2948 12.7232 17.3151 12.8136C17.4018 13.1747 17.5023 13.4933 17.7519 13.7759C18.2412 14.0698 18.8174 14.189 19.3657 14.3291C19.7014 14.4166 20.0251 14.5344 20.3489 14.6579C20.431 14.6889 20.431 14.6889 20.5148 14.7206C20.8946 14.8681 21.2402 15.0314 21.5599 15.2879C21.6064 15.3244 21.6528 15.3609 21.7006 15.3986C22.4819 16.0566 22.99 16.8981 23.1279 17.9199C23.1587 18.3212 23.153 18.7245 23.1522 19.1267C23.1525 19.2426 23.1528 19.3585 23.1531 19.4745C23.1536 19.716 23.1535 19.9576 23.1529 20.1992C23.1523 20.5081 23.1534 20.8169 23.155 21.1258C23.1561 21.3646 23.1561 21.6034 23.1557 21.8422C23.1557 21.9561 23.1561 22.07 23.1568 22.1839C23.1576 22.3431 23.157 22.5022 23.156 22.6614C23.1566 22.7078 23.1571 22.7543 23.1577 22.8022C23.1526 23.2069 23.0337 23.4992 22.7499 23.7894C22.328 24.0734 21.9717 24.1031 21.4759 24.0904C21.4192 24.0896 21.3625 24.0889 21.304 24.0881C21.1653 24.0861 21.0266 24.0834 20.8879 24.0799C20.9107 23.6626 20.9336 23.2452 20.9566 22.8279C20.9644 22.6862 20.9722 22.5445 20.9799 22.4028C20.9911 22.198 21.0024 21.9933 21.0137 21.7885C21.0171 21.7261 21.0205 21.6637 21.024 21.5994C21.0446 21.229 21.07 20.8593 21.0999 20.4896C21.1685 19.57 21.1723 18.666 20.5519 17.9199C20.5204 17.8815 20.4889 17.8431 20.4563 17.8035C20.0641 17.3708 19.5086 17.0546 18.9279 16.9679C18.6763 16.9627 18.4261 16.9763 18.1748 16.988C17.9881 16.9928 17.8013 16.9969 17.6146 17.0006C17.4207 17.0049 17.2274 17.0114 17.0338 17.0226C15.7749 17.0929 15.7749 17.0929 15.4252 16.7871C15.1875 16.4858 15.0275 16.1557 14.8925 15.7978C14.8507 15.6705 14.8507 15.6705 14.7279 15.6239C14.4867 15.6087 14.2451 15.6109 14.0034 15.6099C13.9359 15.6087 13.8684 15.6076 13.7988 15.6064C13.7018 15.606 13.7018 15.606 13.6029 15.6055C13.5138 15.6047 13.5138 15.6047 13.4229 15.6039C13.2451 15.6274 13.2151 15.6563 13.1039 15.7919C13.0475 15.914 13.0475 15.914 12.9998 16.0502C12.86 16.3808 12.7137 16.6805 12.4319 16.9119C11.9365 17.0912 11.3797 17.0324 10.8609 17.005C10.6304 16.9939 10.3997 16.9901 10.169 16.9858C9.98932 16.9823 9.81001 16.9773 9.63044 16.969C8.92163 16.9417 8.31114 17.1311 7.75682 17.5861C7.21059 18.1048 6.9078 18.6893 6.87416 19.4465C6.8607 20.0324 6.90448 20.6148 6.95194 21.1983C7.00133 21.8164 7.03291 22.4351 7.06294 23.0544C7.06542 23.1054 7.0679 23.1564 7.07046 23.2089C7.08453 23.4992 7.09835 23.7896 7.11194 24.0799C6.91829 24.0865 6.72467 24.0904 6.53094 24.0939C6.47687 24.0958 6.42281 24.0976 6.3671 24.0996C5.94617 24.1052 5.53513 24.0494 5.21092 23.7578C4.90561 23.4263 4.8552 23.1201 4.85567 22.6831C4.8553 22.6332 4.85492 22.5832 4.85453 22.5318C4.85347 22.3667 4.85325 22.2016 4.85313 22.0365C4.85277 21.9211 4.85239 21.8056 4.852 21.6901C4.85133 21.4477 4.85112 21.2054 4.85119 20.963C4.8512 20.6546 4.84968 20.3463 4.84774 20.038C4.84649 19.7992 4.84627 19.5603 4.84633 19.3215C4.8462 19.208 4.84571 19.0945 4.84484 18.9809C4.83549 17.6406 5.10663 16.587 6.06916 15.5992C6.59749 15.098 7.19894 14.8048 7.88389 14.5729C7.99715 14.5343 8.10981 14.4942 8.22245 14.4539C8.57826 14.3276 8.92979 14.2133 9.29813 14.1281C9.89175 14.0039 9.89175 14.0039 10.3498 13.6401C10.5166 13.3299 10.6137 13.008 10.7092 12.6707C10.8202 12.3417 10.9857 12.2919 11.3119 12.3199Z" fill="currentColor"/>
<path d="M11.312 12.32C11.2819 12.3338 11.2519 12.3477 11.221 12.362C11.0564 12.4486 10.9055 12.5513 10.752 12.656C10.8733 12.318 10.96 12.3123 11.312 12.32Z" fill="currentColor"/>
</svg>
