<svg width="28" height="28" viewBox="0 0 28 28" fill="none" xmlns="http://www.w3.org/2000/svg">
<g clip-path="url(#clip0_635_2582)">
<path d="M17.6546 10.0789C18.4884 10.7736 19.1409 11.7837 19.2639 12.8801C19.361 14.1399 19.1571 15.2938 18.3784 16.3171C17.6193 17.1956 16.5485 17.889 15.3645 17.9885C14.1149 18.0406 12.9298 17.7793 11.9839 16.9121C11.9298 16.8631 11.8758 16.8142 11.8201 16.7638C11.0772 16.0698 10.5343 15.1168 10.462 14.0822C10.4304 12.6999 10.6889 11.5672 11.6479 10.5281C11.6822 10.4887 11.7165 10.4492 11.7518 10.4086C13.2445 8.78541 15.9744 8.74408 17.6546 10.0789ZM13.9439 11.6481C13.7388 11.9485 13.6961 12.1806 13.7199 12.5441C13.7833 12.8781 13.8924 13.1094 14.1675 13.3154C14.5283 13.5358 14.8362 13.59 15.2514 13.4956C15.5663 13.3778 15.7688 13.1629 15.9564 12.8906C16.0773 12.528 16.1297 12.1682 15.9719 11.8097C15.8105 11.559 15.5753 11.3843 15.3229 11.2316C14.7741 11.114 14.3193 11.2101 13.9439 11.6481ZM13.2686 14.3203C13.2431 14.3532 13.2177 14.3862 13.1914 14.4201C13.1649 14.453 13.1384 14.4859 13.1111 14.5198C12.9729 14.7303 12.9854 14.9236 12.9864 15.168C12.9865 15.205 12.9866 15.2421 12.9867 15.2803C12.987 15.3984 12.9877 15.5165 12.9884 15.6346C12.9887 15.7147 12.9889 15.7949 12.9892 15.8751C12.9898 16.0714 12.9908 16.2677 12.9919 16.4641C13.0974 16.5182 13.203 16.572 13.3087 16.6257C13.3675 16.6557 13.4263 16.6857 13.4868 16.7167C14.2588 17.0803 15.1292 17.1049 15.9376 16.848C16.1163 16.7812 16.2908 16.7123 16.4639 16.6321C16.5127 16.6104 16.5614 16.5888 16.6116 16.5665C16.7605 16.474 16.7605 16.474 16.7792 16.2979C16.7792 16.2312 16.7792 16.1646 16.7791 16.0959C16.7792 16.0227 16.7793 15.9494 16.7795 15.874C16.7788 15.8358 16.7781 15.7976 16.7773 15.7582C16.7754 15.6429 16.7762 15.5278 16.7773 15.4124C16.7742 14.9933 16.7566 14.6874 16.5199 14.3361C16.1847 14.0637 15.9073 14.047 15.4883 14.0447C15.4424 14.0444 15.3966 14.0441 15.3493 14.0437C15.2524 14.0432 15.1554 14.0428 15.0584 14.0426C14.9112 14.0421 14.764 14.0403 14.6168 14.0386C14.5223 14.0382 14.4278 14.0379 14.3333 14.0377C14.268 14.0367 14.268 14.0367 14.2014 14.0356C13.8586 14.037 13.5399 14.0938 13.2686 14.3203Z" fill="currentColor"/>
<path d="M26.0962 16.744C26.292 16.9034 26.476 17.0711 26.6562 17.248C26.692 17.2824 26.7278 17.3169 26.7647 17.3523C27.4145 18.0298 27.6369 18.9214 27.6318 19.8329C27.6204 20.2518 27.5501 20.613 27.3842 21C27.3617 21.056 27.3393 21.112 27.3161 21.1697C26.8928 22.1221 26.056 22.7359 25.1177 23.1302C24.302 23.4068 23.3448 23.3008 22.5682 22.96C21.6428 22.4868 21.0342 21.7361 20.6642 20.776C20.3795 19.8508 20.502 18.8768 20.9203 18.0193C21.2534 17.4059 21.6935 16.9394 22.2882 16.576C22.3243 16.5536 22.3604 16.5312 22.3976 16.5082C23.4627 15.913 25.1301 16.0154 26.0962 16.744ZM23.3607 17.7806C23.143 18.0186 23.0153 18.2611 23.0166 18.5924C23.0463 18.9322 23.1498 19.1736 23.3942 19.418C23.6899 19.6227 23.9573 19.689 24.309 19.63C24.6189 19.5433 24.8696 19.313 25.0322 19.04C25.1605 18.7307 25.1689 18.4641 25.046 18.1521C24.8825 17.8708 24.6399 17.6894 24.3462 17.5595C23.9959 17.4878 23.6409 17.5514 23.3607 17.7806ZM22.5507 20.461C22.3183 20.8224 22.267 21.1934 22.3442 21.616C22.4654 21.7839 22.608 21.8624 22.7922 21.952C22.8517 21.9844 22.8517 21.9844 22.9125 22.0174C23.5619 22.3421 24.2479 22.3438 24.9342 22.1375C25.2551 22.0228 25.519 21.8572 25.7602 21.616C25.7673 21.5007 25.77 21.385 25.7707 21.2695C25.7715 21.2063 25.7723 21.1432 25.7731 21.0781C25.7543 20.8016 25.6981 20.613 25.5222 20.398C25.2362 20.164 24.9431 20.1427 24.5844 20.1431C24.5212 20.1428 24.5212 20.1428 24.4568 20.1424C24.3682 20.1421 24.2796 20.1421 24.191 20.1423C24.0563 20.1425 23.9216 20.1412 23.7869 20.1398C23.7004 20.1396 23.6139 20.1396 23.5274 20.1396C23.4876 20.1391 23.4478 20.1386 23.4068 20.1381C23.0638 20.1412 22.7945 20.2105 22.5507 20.461Z" fill="currentColor"/>
<path d="M5.90656 12.3232C6.67793 12.9166 7.28031 13.6861 7.44788 14.6719C7.55073 15.7874 7.35387 16.7228 6.65841 17.6242C6.37991 17.9503 6.07728 18.2006 5.71188 18.4239C5.65773 18.4575 5.65773 18.4575 5.6025 18.4917C4.80483 18.9375 3.70993 18.9353 2.84188 18.7249C2.2328 18.533 1.7956 18.1953 1.34388 17.7519C1.30807 17.7175 1.27227 17.683 1.23538 17.6476C0.58168 16.9662 0.364001 16.0749 0.372297 15.1589C0.382122 14.7875 0.414723 14.4574 0.559876 14.1119C0.597882 14.0192 0.597882 14.0192 0.636657 13.9247C1.08795 12.929 1.88489 12.2889 2.88234 11.8697C3.87318 11.5337 5.05781 11.7331 5.90656 12.3232ZM3.24766 13.4211C3.00423 13.6762 2.86075 13.922 2.85588 14.2799C2.89348 14.5907 3.00883 14.7925 3.23738 15.0044C3.50499 15.2141 3.71812 15.3026 4.05988 15.2809C4.36862 15.2363 4.55795 15.1003 4.77388 14.8784C4.96935 14.5782 5.00894 14.2996 4.95806 13.9518C4.88127 13.6468 4.68113 13.4394 4.42388 13.2719C3.99312 13.1208 3.60906 13.121 3.24766 13.4211ZM2.44638 16.0614C2.22003 16.3548 2.19814 16.7135 2.20509 17.0725C2.24559 17.2767 2.29157 17.3432 2.44988 17.4754C3.08008 17.8735 3.80517 17.9955 4.53238 17.8563C4.93326 17.7433 5.35999 17.5459 5.65588 17.2479C5.73202 16.8647 5.69562 16.4603 5.48788 16.1279C5.25502 15.8788 5.06433 15.7981 4.72874 15.7829C4.64951 15.7818 4.57027 15.781 4.49103 15.7805C4.44877 15.7802 4.40652 15.7799 4.36298 15.7796C4.27369 15.779 4.1844 15.7787 4.09511 15.7785C3.95942 15.7779 3.82378 15.7762 3.68811 15.7744C3.60108 15.774 3.51406 15.7738 3.42703 15.7735C3.38688 15.7728 3.34674 15.7722 3.30538 15.7714C2.9662 15.7729 2.71468 15.8511 2.44638 16.0614Z" fill="currentColor"/>
<path d="M14.28 21.112C14.4828 21.2661 14.6625 21.4334 14.84 21.616C14.8755 21.6503 14.911 21.6847 14.9476 21.7201C15.6044 22.4001 15.821 23.3103 15.8114 24.2279C15.7832 25.2136 15.3651 25.9715 14.672 26.656C14.6377 26.6915 14.6034 26.727 14.5681 26.7636C13.9024 27.4051 13.0178 27.6355 12.1191 27.6277C11.1605 27.6016 10.3799 27.2168 9.69388 26.5534C8.93225 25.7367 8.67978 24.848 8.71453 23.7604C8.76843 22.8076 9.23732 21.9878 9.91875 21.334C10.2525 21.0553 10.6303 20.8804 11.032 20.72C11.0789 20.7008 11.1258 20.6816 11.1742 20.6618C12.2045 20.3118 13.3759 20.564 14.28 21.112ZM11.487 22.183C11.2766 22.4676 11.1789 22.7549 11.2035 23.1105C11.2524 23.4122 11.3924 23.6027 11.6095 23.814C11.8932 23.9987 12.1627 24.0534 12.4928 23.9979C12.8027 23.9113 13.0534 23.681 13.216 23.408C13.3443 23.0987 13.3527 22.832 13.2298 22.5201C13.0663 22.2388 12.8237 22.0574 12.53 21.9275C12.1435 21.8484 11.7995 21.952 11.487 22.183ZM10.7345 24.8255C10.5126 25.1788 10.4461 25.573 10.528 25.984C10.6506 26.1479 10.7949 26.2291 10.976 26.32C11.0157 26.3416 11.0554 26.3633 11.0963 26.3856C11.7394 26.706 12.463 26.7313 13.1425 26.509C13.4561 26.3794 13.7737 26.2438 14 25.984C14.0861 25.6534 14.0185 25.2868 13.888 24.976C13.7024 24.7427 13.4979 24.6165 13.216 24.528C13.0603 24.5125 12.9179 24.5043 12.7627 24.5057C12.7207 24.5055 12.6787 24.5053 12.6354 24.5052C12.5471 24.5051 12.4588 24.5054 12.3705 24.5061C12.2363 24.507 12.1022 24.5061 11.968 24.505C11.8817 24.5051 11.7955 24.5053 11.7092 24.5057C11.6696 24.5053 11.63 24.505 11.5892 24.5046C11.2483 24.5094 10.9798 24.5802 10.7345 24.8255Z" fill="currentColor"/>
<path d="M11.5918 0.952079C12.3761 1.58651 12.9964 2.33739 13.1598 3.36008C13.2592 4.38597 13.0887 5.32261 12.4261 6.13667C12.3013 6.27964 12.1724 6.41644 12.0398 6.55208C12.0066 6.58788 11.9735 6.62369 11.9394 6.66058C11.2977 7.29522 10.352 7.47181 9.48807 7.46844C8.66116 7.45297 7.82095 7.17474 7.20562 6.59911C6.81061 6.16542 6.49934 5.69254 6.27178 5.15208C6.24319 5.08484 6.24319 5.08484 6.21403 5.01623C5.93207 4.19776 6.02905 3.18676 6.38378 2.40808C6.51703 2.16976 6.66521 1.95218 6.83178 1.73608C6.85813 1.69955 6.88447 1.66302 6.91162 1.62539C7.9938 0.227174 10.1646 -0.0369213 11.5918 0.952079ZM8.79178 2.18408C8.61938 2.40404 8.55934 2.63454 8.56778 2.91208C8.62927 3.21648 8.73415 3.4769 8.95978 3.69608C9.23808 3.87318 9.53113 3.95464 9.85818 3.90148C10.188 3.80261 10.4056 3.59464 10.5838 3.30408C10.7108 2.96949 10.7278 2.6859 10.5838 2.35208C10.4099 2.07521 10.1706 1.90319 9.85665 1.81789C9.41921 1.74498 9.10794 1.8751 8.79178 2.18408ZM8.03928 4.78808C7.83999 5.10693 7.82156 5.51782 7.89578 5.88008C8.23105 6.29207 8.86555 6.4805 9.37628 6.54508C9.90772 6.57616 10.3967 6.4672 10.8638 6.21608C10.911 6.19442 10.9582 6.17277 11.0068 6.15045C11.1551 6.07195 11.258 6.00732 11.3678 5.88008C11.4457 5.53444 11.4003 5.13788 11.2558 4.81608C10.9602 4.5138 10.6776 4.41357 10.2584 4.40564C10.2186 4.40552 10.1789 4.40539 10.138 4.40527C10.075 4.40471 10.075 4.40471 10.0108 4.40414C9.92241 4.40357 9.83402 4.40331 9.74564 4.40332C9.61154 4.40308 9.47755 4.40104 9.34347 4.39892C8.82794 4.39511 8.4213 4.39626 8.03928 4.78808Z" fill="currentColor"/>
<path d="M26.0961 3.64003C26.8547 4.24516 27.4633 5.00451 27.6081 5.99203C27.6764 7.13367 27.481 8.07613 26.7121 8.96003C26.6856 8.99316 26.659 9.0263 26.6316 9.06044C26.0884 9.67869 25.1618 10.0483 24.3612 10.1028C23.4856 10.1391 22.7343 9.97389 22.0081 9.46403C21.9693 9.43884 21.9305 9.41364 21.8905 9.38769C21.2331 8.93717 20.7595 8.12792 20.5766 7.35637C20.4463 6.35464 20.5336 5.39037 21.1121 4.53603C22.3256 2.97316 24.4278 2.46454 26.0961 3.64003ZM23.3031 4.71103C23.1166 4.96342 23.0057 5.20422 23.0251 5.52325C23.0839 5.85455 23.1789 6.09172 23.4116 6.33853C23.6799 6.50405 23.9552 6.57233 24.2707 6.53694C24.6205 6.44425 24.847 6.24378 25.0321 5.93603C25.1658 5.6048 25.172 5.31405 25.038 4.9825C24.8724 4.6869 24.6048 4.56164 24.3002 4.45094C23.9435 4.36212 23.5881 4.50043 23.3031 4.71103ZM22.6381 7.23453C22.3614 7.58041 22.2923 7.89722 22.3035 8.33856C22.3531 8.55041 22.4118 8.6118 22.5856 8.73953C23.2987 9.14484 24.0076 9.28797 24.8081 9.07203C25.3459 8.87358 25.3459 8.87358 25.7601 8.51203C25.8065 8.14281 25.8047 7.73366 25.6481 7.39203C25.378 7.10933 25.1089 7.01387 24.7225 6.98554C24.6202 6.98535 24.6202 6.98535 24.5159 6.98515C24.4788 6.98505 24.4418 6.98494 24.4036 6.98483C24.3259 6.98475 24.2481 6.98496 24.1704 6.98543C24.0524 6.98603 23.9345 6.98543 23.8165 6.98472C23.7405 6.98479 23.6644 6.98493 23.5884 6.98515C23.5202 6.98528 23.452 6.98541 23.3818 6.98554C23.0935 7.00668 22.8662 7.05313 22.6381 7.23453Z" fill="currentColor"/>
<path d="M13.944 4.14404C14.63 4.17892 15.2968 4.28232 15.974 4.39254C16.6139 4.49627 17.2517 4.59721 17.8966 4.66409C18.3295 4.70979 18.7578 4.77933 19.187 4.85104C19.2661 4.86405 19.3451 4.87703 19.4242 4.88998C19.6135 4.92106 19.8028 4.95246 19.992 4.98404C19.9606 5.20747 19.9288 5.4287 19.88 5.64904C19.8708 5.69163 19.8616 5.73422 19.852 5.77811C19.824 5.88004 19.824 5.88004 19.768 5.93604C19.1294 5.93278 18.4872 5.80287 17.8581 5.70504C17.7452 5.68766 17.6322 5.6703 17.5193 5.65295C17.2842 5.61679 17.0491 5.58043 16.814 5.54393C16.5123 5.4971 16.2106 5.45069 15.9088 5.4044C15.6763 5.36871 15.4439 5.33283 15.2114 5.29689C15.1001 5.27969 14.9887 5.26254 14.8774 5.24545C14.7226 5.22164 14.5678 5.1976 14.413 5.17348C14.3669 5.16644 14.3208 5.1594 14.2733 5.15214C13.9568 5.10245 13.9568 5.10245 13.832 5.04004C13.869 4.74436 13.906 4.44868 13.944 4.14404Z" fill="currentColor"/>
<path d="M23.5762 10.864C23.8903 10.864 24.2045 10.864 24.5282 10.864C24.5282 12.3609 24.5282 13.8578 24.5282 15.4C24.214 15.4 23.8999 15.4 23.5762 15.4C23.5762 13.9031 23.5762 12.4063 23.5762 10.864Z" fill="currentColor"/>
<path d="M7.28013 7.56006C7.55733 7.68942 7.83453 7.81878 8.12013 7.95206C8.07759 8.12223 8.04056 8.2368 7.96385 8.38845C7.94322 8.42952 7.92259 8.47059 7.90133 8.51291C7.8789 8.55702 7.85646 8.60114 7.83335 8.64659C7.81006 8.69288 7.78677 8.73916 7.76277 8.78685C7.68726 8.93686 7.61146 9.08671 7.53563 9.23656C7.43287 9.44006 7.33028 9.64364 7.22785 9.84731C7.20286 9.89699 7.17786 9.94667 7.15211 9.99786C6.93986 10.4214 6.73565 10.8484 6.54613 11.2826C6.41043 11.5813 6.41043 11.5813 6.27689 11.6358C6.08627 11.6558 5.95126 11.5664 5.78213 11.4836C5.71658 11.4519 5.65104 11.4202 5.5835 11.3875C5.53355 11.3626 5.4836 11.3377 5.43213 11.3121C5.47146 11.1177 5.54694 10.9569 5.63576 10.7801C5.6666 10.7184 5.69745 10.6567 5.72923 10.5932C5.76305 10.5261 5.79687 10.4591 5.83069 10.392C5.86538 10.3228 5.90006 10.2536 5.93471 10.1844C6.02596 10.0024 6.11747 9.82044 6.20905 9.63853C6.30177 9.45424 6.39423 9.26981 6.48672 9.0854C6.64987 8.76017 6.81324 8.43505 6.97678 8.11001C7.03401 7.99609 7.09059 7.88185 7.14676 7.7674C7.22413 7.61606 7.22413 7.61606 7.28013 7.56006Z" fill="currentColor"/>
<path d="M19.8799 20.7759C19.9271 20.883 19.9736 20.9904 20.0199 21.0979C20.0589 21.1875 20.0589 21.1875 20.0987 21.279C20.1599 21.4479 20.1599 21.4479 20.1599 21.6719C19.6087 21.8786 19.0574 22.0853 18.5062 22.292C18.4467 22.3144 18.3872 22.3367 18.3258 22.3597C18.2073 22.4041 18.0888 22.4485 17.9702 22.4928C17.7097 22.5902 17.4494 22.6882 17.1904 22.7896C17.1487 22.8058 17.107 22.822 17.0641 22.8386C16.9556 22.8808 16.8473 22.9235 16.7391 22.9663C16.5759 23.0159 16.5759 23.0159 16.4079 22.9599C16.3497 22.818 16.3015 22.6826 16.2574 22.5364C16.2448 22.4966 16.2322 22.4568 16.2193 22.4157C16.1882 22.3173 16.158 22.2186 16.1279 22.1199C16.662 21.8922 17.202 21.6808 17.7437 21.4722C17.8881 21.4165 18.0322 21.3605 18.1764 21.3045C19.5435 20.7759 19.5435 20.7759 19.8799 20.7759Z" fill="currentColor"/>
<path d="M7.16791 18.144C7.33591 18.144 7.33591 18.144 7.42625 18.2322C7.45766 18.2713 7.48906 18.3103 7.52141 18.3505C7.64186 18.4947 7.75056 18.6109 7.89591 18.732C8.07058 18.8776 8.20897 19.0334 8.35594 19.2059C8.45075 19.3142 8.54914 19.4153 8.65191 19.516C8.82498 19.6864 8.98596 19.8644 9.1441 20.0487C9.20819 20.1232 9.27324 20.1968 9.33922 20.2696C9.38535 20.3211 9.38535 20.3211 9.43241 20.3735C9.46006 20.4039 9.48771 20.4343 9.51619 20.4656C9.57591 20.552 9.57591 20.552 9.57591 20.72C9.48185 20.8183 9.48185 20.8183 9.35891 20.9195C9.31863 20.9531 9.27835 20.9867 9.23685 21.0213C9.2009 21.0512 9.16495 21.0812 9.12791 21.112C9.09095 21.149 9.05399 21.186 9.01591 21.224C8.89691 21.203 8.89691 21.203 8.79191 21.168C8.79191 21.1311 8.79191 21.0941 8.79191 21.056C8.74308 21.0346 8.74308 21.0346 8.69325 21.0127C8.55513 20.937 8.4644 20.8535 8.35441 20.741C8.3194 20.7057 8.28439 20.6703 8.24832 20.6339C8.14228 20.5201 8.0398 20.4046 7.93791 20.2871C7.68422 19.9956 7.41744 19.717 7.15096 19.4372C6.96065 19.2364 6.77602 19.0363 6.60791 18.816C6.68472 18.6377 6.76817 18.5377 6.91941 18.417C7.06768 18.3003 7.06768 18.3003 7.16791 18.144Z" fill="currentColor"/>
<path d="M20.1599 8.62402C20.3869 8.69966 20.433 8.81419 20.5624 9.01252C20.6225 9.10337 20.6225 9.10337 20.6839 9.19605C20.7759 9.35202 20.7759 9.35202 20.7759 9.46402C20.6716 9.55127 20.567 9.63229 20.4574 9.71252C20.2475 9.86878 20.0417 10.0266 19.8454 10.1999C19.813 10.2284 19.7807 10.2569 19.7473 10.2862C19.6849 10.3417 19.623 10.3977 19.5616 10.4543C19.3527 10.6389 19.3527 10.6389 19.2001 10.644C19.0612 10.564 18.9858 10.4703 18.8894 10.3425C18.8557 10.2989 18.822 10.2552 18.7873 10.2102C18.7089 10.0878 18.6723 9.99791 18.6479 9.85602C19.0442 9.52143 19.4452 9.1944 19.8543 8.87563C20.0124 8.75601 20.0124 8.75601 20.1599 8.62402Z" fill="currentColor"/>
<path d="M9.68812 13.9441C9.70707 14.0502 9.72567 14.1564 9.74412 14.2626C9.75451 14.3217 9.76491 14.3808 9.77562 14.4417C9.79741 14.5968 9.80197 14.74 9.80012 14.8961C9.57032 14.9336 9.34047 14.9709 9.11062 15.0081C9.04525 15.0188 8.97989 15.0294 8.91254 15.0404C8.81861 15.0556 8.81861 15.0556 8.72277 15.0711C8.665 15.0805 8.60723 15.0898 8.54771 15.0995C8.40012 15.1201 8.40012 15.1201 8.23212 15.1201C8.19516 14.7874 8.1582 14.4548 8.12012 14.1121C8.64355 14.0101 9.15409 13.9394 9.68812 13.9441Z" fill="currentColor"/>
<path d="M19.3762 16.072C19.6176 16.1235 19.8083 16.2422 20.0167 16.3695C20.0534 16.3914 20.0901 16.4133 20.128 16.4359C20.338 16.563 20.5319 16.6975 20.7202 16.856C20.6849 17.0497 20.6081 17.1782 20.4962 17.339C20.3755 17.5124 20.3755 17.5124 20.2722 17.696C20.0723 17.6227 19.9069 17.5351 19.7321 17.4138C19.6615 17.3651 19.6615 17.3651 19.5894 17.3154C19.541 17.2816 19.4926 17.2478 19.4427 17.213C19.3932 17.1788 19.3438 17.1446 19.2928 17.1093C19.1711 17.0251 19.0496 16.9407 18.9282 16.856C19.016 16.6778 19.1123 16.5081 19.2152 16.338C19.2454 16.2881 19.2756 16.2381 19.3067 16.1866C19.3411 16.1299 19.3411 16.1299 19.3762 16.072Z" fill="currentColor"/>
<path d="M12.152 7.50391C12.2555 7.68548 12.3578 7.86763 12.46 8.04991C12.4894 8.10145 12.5188 8.15299 12.549 8.20609C12.5768 8.2559 12.6046 8.30571 12.6333 8.35703C12.6591 8.40278 12.6849 8.44853 12.7115 8.49566C12.768 8.62391 12.768 8.62391 12.768 8.84791C12.6492 8.91353 12.5301 8.97881 12.411 9.04391C12.3772 9.0626 12.3434 9.0813 12.3086 9.10056C12.0527 9.23991 12.0527 9.23991 11.928 9.23991C11.8248 9.0477 11.7223 8.8551 11.62 8.66241C11.5759 8.58038 11.5759 8.58038 11.531 8.4967C11.5032 8.44419 11.4754 8.39167 11.4468 8.33756C11.421 8.28917 11.3951 8.24079 11.3686 8.19093C11.312 8.06391 11.312 8.06391 11.312 7.89591C11.4309 7.83029 11.5499 7.765 11.669 7.69991C11.7197 7.67186 11.7197 7.67186 11.7714 7.64325C12.0273 7.50391 12.0273 7.50391 12.152 7.50391Z" fill="currentColor"/>
<path d="M13.1602 18.48C13.4374 18.5354 13.7146 18.5909 14.0002 18.648C14.0606 18.8893 14.0337 19.0525 13.9827 19.2885C13.9717 19.3435 13.9717 19.3435 13.9605 19.3997C13.9175 19.607 13.8617 19.7983 13.7762 19.992C13.7015 19.9757 13.6269 19.9594 13.5522 19.943C13.5106 19.9339 13.4691 19.9248 13.4262 19.9154C13.2248 19.8691 13.0246 19.8185 12.8242 19.768C12.8589 19.6057 12.894 19.4436 12.9292 19.2815C12.939 19.2357 12.9487 19.19 12.9587 19.1429C12.9685 19.0983 12.9782 19.0538 12.9883 19.0078C12.9971 18.9671 13.0059 18.9263 13.0149 18.8843C13.052 18.746 13.107 18.6129 13.1602 18.48Z" fill="currentColor"/>
<path d="M9.18412 14C9.18412 14.0185 9.18412 14.037 9.18412 14.056C8.7406 14.1392 8.7406 14.1392 8.28812 14.224C8.28812 14.4828 8.28812 14.7415 8.28812 15.008C8.43596 15.008 8.5838 15.008 8.73612 15.008C8.73612 15.0265 8.73612 15.045 8.73612 15.064C8.5698 15.0825 8.40348 15.101 8.23212 15.12C8.19516 14.7874 8.1582 14.4548 8.12012 14.112C8.48351 14.0394 8.81397 13.9861 9.18412 14Z" fill="currentColor"/>
<path d="M12.096 10.0801C12.1329 10.0986 12.1699 10.117 12.208 10.1361C11.7444 10.6726 11.7444 10.6726 11.592 10.8081C11.555 10.8081 11.5181 10.8081 11.48 10.8081C11.566 10.602 11.6917 10.4728 11.851 10.3181C11.8967 10.2733 11.9425 10.2286 11.9897 10.1825C12.0423 10.1318 12.0423 10.1318 12.096 10.0801Z" fill="currentColor"/>
<path d="M1.73612 12.488C1.77308 12.5065 1.81004 12.525 1.84812 12.544C1.62646 12.8142 1.42299 13.0387 1.12012 13.216C1.20616 13.0099 1.33188 12.8807 1.49112 12.726C1.53688 12.6813 1.58265 12.6365 1.6298 12.5904C1.68243 12.5397 1.68243 12.5397 1.73612 12.488Z" fill="currentColor"/>
<path d="M21.7841 3.80811C21.8211 3.82659 21.858 3.84507 21.8961 3.86411C21.6938 4.11949 21.5048 4.31304 21.2241 4.48011C21.3068 4.28679 21.4166 4.16373 21.5671 4.01811C21.6077 3.97855 21.6483 3.93899 21.6901 3.89823C21.7211 3.86849 21.7521 3.83875 21.7841 3.80811Z" fill="currentColor"/>
<path d="M16.7999 21.9519C16.7524 21.9713 16.7524 21.9713 16.7039 21.9911C16.5798 22.0462 16.4652 22.1009 16.3519 22.1759C16.2888 22.3223 16.2888 22.3223 16.2959 22.4559C16.1839 22.2879 16.1839 22.2879 16.1279 22.1199C16.2081 22.0807 16.2887 22.0424 16.3694 22.0044C16.4367 21.9722 16.4367 21.9722 16.5053 21.9394C16.6319 21.8959 16.6319 21.8959 16.7999 21.9519Z" fill="currentColor"/>
<path d="M13.1601 18.48C13.2341 18.5169 13.308 18.5539 13.3841 18.592C13.3287 18.6289 13.2733 18.6659 13.2161 18.704C13.1487 18.8469 13.1487 18.8469 13.1041 18.984C13.0463 18.8278 13.0456 18.7674 13.1006 18.606C13.1203 18.5644 13.1399 18.5228 13.1601 18.48Z" fill="currentColor"/>
<path d="M6.94406 18.4241C6.94406 18.5921 6.94406 18.5921 6.80406 18.7426C6.75786 18.7853 6.71166 18.828 6.66406 18.8721C6.66406 18.7982 6.66406 18.7242 6.66406 18.6481C6.80406 18.5221 6.80406 18.5221 6.94406 18.4241Z" fill="currentColor"/>
</g>
<defs>
<clipPath id="clip0_635_2582">
<rect width="28" height="28" fill="white"/>
</clipPath>
</defs>
</svg>
