<svg width="28" height="28" viewBox="0 0 28 28" fill="none" xmlns="http://www.w3.org/2000/svg">
<path d="M2.2958 4.64795C10.0204 4.64795 17.7451 4.64795 25.7038 4.64795C25.709 7.80976 25.709 7.80976 25.7143 11.0354C25.7158 11.7014 25.7174 12.3673 25.7189 13.0534C25.7197 13.8657 25.7197 13.8657 25.7198 14.2458C25.72 14.5116 25.7206 14.7774 25.7215 15.0433C25.7227 15.3823 25.723 15.7213 25.7228 16.0603C25.7228 16.1848 25.7232 16.3093 25.7238 16.4337C25.7247 16.6018 25.7245 16.7699 25.724 16.938C25.7247 17.0111 25.7247 17.0111 25.7255 17.0857C25.723 17.4283 25.6733 17.7071 25.4396 17.9738C25.4066 17.9999 25.3737 18.026 25.3398 18.0529C25.3069 18.0799 25.274 18.1069 25.2401 18.1348C25.0788 18.244 24.933 18.2637 24.7437 18.2694C24.6971 18.2709 24.6505 18.2723 24.6026 18.2738C24.3891 18.2785 24.1756 18.2822 23.962 18.2848C23.8498 18.2866 23.7376 18.2892 23.6254 18.2928C22.5723 18.3261 22.5723 18.3261 22.26 18.0418C22.1936 17.9648 22.128 17.8869 22.0638 17.808C21.4462 17.4115 20.7732 17.2729 20.0491 17.386C19.628 17.4779 19.1356 17.6288 18.8413 17.9619C18.6357 18.1841 18.4794 18.2776 18.1709 18.2931C17.9748 18.295 17.7797 18.2887 17.5838 18.2804C17.5022 18.2785 17.4206 18.2767 17.339 18.2751C17.1405 18.2708 16.9422 18.2641 16.7438 18.2559C16.7338 18.1941 16.7238 18.1322 16.7135 18.0684C16.5805 17.266 16.3783 16.5842 15.7017 16.0737C14.9968 15.6038 14.2619 15.3825 13.4144 15.5502C12.7761 15.7325 12.0991 16.0826 11.7281 16.6554C11.6557 16.7947 11.5936 16.934 11.5358 17.0799C11.5193 17.1209 11.5027 17.1618 11.4857 17.204C11.3974 17.4445 11.3478 17.6834 11.3072 17.9361C11.2975 17.9962 11.2877 18.0562 11.2777 18.1181C11.2705 18.1636 11.2633 18.2091 11.2558 18.2559C11.0168 18.2657 10.7779 18.2728 10.5387 18.2775C10.4576 18.2794 10.3764 18.2821 10.2953 18.2855C9.53461 18.3167 9.53461 18.3167 9.26408 18.0718C9.23116 18.0362 9.19823 18.0005 9.16431 17.9639C8.80255 17.5732 8.15408 17.3903 7.63987 17.3481C7.03774 17.3258 6.44329 17.48 5.9358 17.808C5.8713 17.8849 5.80699 17.9621 5.74287 18.0394C5.36354 18.3823 4.86463 18.3123 4.38343 18.299C4.21713 18.2944 4.05105 18.2932 3.88469 18.2926C3.77834 18.2913 3.67199 18.2898 3.56565 18.2881C3.51629 18.2876 3.46693 18.287 3.41608 18.2865C3.0855 18.2763 2.83732 18.2231 2.58346 17.9937C2.55668 17.9613 2.5299 17.9288 2.5023 17.8954C2.4748 17.8632 2.4473 17.8309 2.41896 17.7977C2.30393 17.6234 2.2888 17.4493 2.28891 17.2441C2.2888 17.199 2.28869 17.1538 2.28857 17.1073C2.28874 17.0581 2.2889 17.0089 2.28907 16.9582C2.28902 16.9057 2.28897 16.8533 2.28892 16.7993C2.28883 16.6226 2.28914 16.446 2.28945 16.2693C2.28946 16.1409 2.28946 16.0125 2.28942 15.884C2.28941 15.5396 2.28974 15.1951 2.29013 14.8506C2.29045 14.5276 2.29046 14.2046 2.2905 13.8816C2.2908 12.9364 2.29158 11.9912 2.2923 11.0459C2.29346 8.93461 2.29461 6.82327 2.2958 4.64795ZM13.1738 6.56245C13.0932 6.67 13.0141 6.77867 12.9358 6.88795C12.9077 6.92661 12.8796 6.96528 12.8506 7.00512C12.7572 7.1337 12.6643 7.26271 12.5718 7.39195C12.5415 7.43419 12.5112 7.47644 12.48 7.51996C12.452 7.55972 12.4239 7.59948 12.3951 7.64045C12.3698 7.67618 12.3444 7.71192 12.3184 7.74873C12.2542 7.83825 12.2542 7.83825 12.2638 7.95195C12.2089 7.96552 12.1539 7.97909 12.0973 7.99307C11.8961 8.04292 11.6951 8.09356 11.494 8.14434C11.3739 8.17443 11.2535 8.20368 11.1331 8.23282C11.0596 8.25117 10.9862 8.26954 10.9128 8.28795C10.8468 8.30412 10.7808 8.32029 10.7129 8.33695C10.3525 8.45964 10.1333 8.66255 9.9118 8.95995C9.82135 9.23129 9.79584 9.5257 9.89671 9.79864C10.1043 10.1508 10.4 10.4587 10.6679 10.7661C10.6956 10.7984 10.7233 10.8307 10.7518 10.8639C10.8252 10.938 10.8252 10.938 10.9001 11.0135C11.0685 11.2171 11.0642 11.4175 11.0513 11.6722C11.0503 11.7168 11.0494 11.7614 11.0485 11.8073C11.0454 11.9491 11.0406 12.0907 11.0353 12.2324C11.0303 12.374 11.0258 12.5154 11.0227 12.657C11.0208 12.7448 11.0178 12.8325 11.0136 12.9202C11.0065 13.233 11.0776 13.406 11.2558 13.6639C11.5356 13.9171 11.7104 13.967 12.0811 13.9637C12.4947 13.919 12.8771 13.7317 13.2602 13.5781C13.9695 13.306 14.3514 13.4265 15.0463 13.6919C15.1689 13.7383 15.2916 13.7844 15.4145 13.8302C15.4681 13.8507 15.5218 13.8711 15.5771 13.8922C15.9047 13.999 16.1325 14.0137 16.4533 13.8967C16.711 13.7605 16.8767 13.5452 16.9678 13.2719C16.9666 13.1214 16.9621 12.9723 16.9556 12.822C16.9529 12.7307 16.9505 12.6393 16.9481 12.548C16.9443 12.4046 16.9399 12.2615 16.9329 12.1182C16.8907 11.2213 16.8907 11.2213 17.2025 10.8777C17.2911 10.7972 17.3808 10.7178 17.4718 10.6399C17.5297 10.5729 17.5859 10.5044 17.6396 10.4339C17.6627 10.4039 17.6859 10.3738 17.7097 10.3429C17.7427 10.2994 17.7427 10.2994 17.7763 10.2549C17.7998 10.2246 17.8233 10.1943 17.8475 10.1631C18.1196 9.80719 18.1877 9.57381 18.1438 9.12795C18.0434 8.82094 17.8594 8.61762 17.5838 8.45595C17.2174 8.3144 16.8411 8.20648 16.4566 8.12651C15.8391 7.99425 15.8391 7.99425 15.6378 7.73845C15.5761 7.64226 15.5156 7.54531 15.4558 7.44795C15.353 7.30285 15.2467 7.16034 15.1408 7.01745C15.1025 6.96457 15.1025 6.96457 15.0634 6.91063C14.7062 6.39846 14.7062 6.39846 14.1678 6.10395C13.7434 6.04074 13.4348 6.24462 13.1738 6.56245Z" fill="currentColor"/>
<path d="M5.8799 0.44809C6.1039 0.72809 6.1039 0.72809 6.1039 1.84809C7.15726 1.84809 8.21062 1.84809 9.2959 1.84809C9.2959 1.49697 9.2959 1.14585 9.2959 0.78409C9.49974 0.444357 9.49974 0.444357 9.6879 0.39209C9.8839 0.39559 9.8839 0.39559 10.0799 0.44809C10.3039 0.72809 10.3039 0.72809 10.3039 1.84809C11.3573 1.84809 12.4106 1.84809 13.4959 1.84809C13.4959 1.49697 13.4959 1.14585 13.4959 0.78409C13.6997 0.444357 13.6997 0.444357 13.8879 0.39209C14.0839 0.39559 14.0839 0.39559 14.2799 0.44809C14.5039 0.72809 14.5039 0.72809 14.5039 1.84809C15.5573 1.84809 16.6106 1.84809 17.6959 1.84809C17.6959 1.47849 17.6959 1.10889 17.6959 0.72809C17.9199 0.44809 17.9199 0.44809 18.1124 0.39209C18.3353 0.39209 18.4217 0.419096 18.5919 0.56009C18.7039 0.78409 18.7039 0.78409 18.7039 1.84809C19.7573 1.84809 20.8106 1.84809 21.8959 1.84809C21.8959 1.47849 21.8959 1.10889 21.8959 0.72809C22.1199 0.44809 22.1199 0.44809 22.3124 0.39209C22.5338 0.39209 22.619 0.426694 22.7919 0.56009C22.9711 0.739253 22.9589 0.915317 22.9654 1.16318C22.965 1.23865 22.9643 1.31412 22.9634 1.38959C22.9631 1.42839 22.9629 1.46719 22.9626 1.50717C22.962 1.60214 22.961 1.69712 22.9599 1.79209C23.0203 1.79232 23.0807 1.79255 23.143 1.79279C23.3689 1.79401 23.5947 1.79706 23.8205 1.80063C23.918 1.80193 24.0154 1.80274 24.1128 1.80304C24.2536 1.80357 24.3942 1.80587 24.5349 1.8085C24.5779 1.80828 24.6209 1.80806 24.6652 1.80783C24.9979 1.81666 25.219 1.92347 25.4799 2.12809C25.9097 2.59953 25.7039 3.13455 25.7039 3.80809C17.9793 3.80809 10.2546 3.80809 2.2959 3.80809C2.2959 2.52009 2.2959 2.52009 2.4639 2.18409C2.77968 1.8926 3.01883 1.83112 3.44302 1.8249C3.4887 1.82382 3.53437 1.82273 3.58143 1.82162C3.72691 1.81828 3.8724 1.81567 4.0179 1.81309C4.1167 1.81095 4.2155 1.80876 4.3143 1.80653C4.55616 1.80116 4.79802 1.79645 5.0399 1.79209C5.0386 1.73535 5.0373 1.67861 5.03596 1.62015C5.03491 1.54447 5.03389 1.46878 5.0329 1.39309C5.03196 1.35584 5.03102 1.31859 5.03005 1.28021C5.02728 0.997094 5.05217 0.74184 5.2324 0.51459C5.44501 0.353004 5.63342 0.387551 5.8799 0.44809Z" fill="currentColor"/>
<path d="M13.9753 20.9825C14.0782 20.9801 14.0782 20.9801 14.1832 20.9776C15.0376 20.9717 15.7242 21.308 16.3463 21.8851C17.0652 22.6374 17.3328 23.5196 17.3202 24.5392C17.32 24.6046 17.3198 24.6701 17.3197 24.7375C17.3188 24.9792 17.3164 25.2209 17.3143 25.4625C17.3108 26.0042 17.3073 26.5459 17.3038 27.104C15.1231 27.104 12.9425 27.104 10.6958 27.104C10.6911 26.5647 10.6865 26.0253 10.6818 25.4695C10.6797 25.3007 10.6777 25.132 10.6756 24.9581C10.6749 24.8221 10.6744 24.6861 10.6739 24.5501C10.6727 24.4813 10.6716 24.4125 10.6704 24.3416C10.67 23.3655 11.0419 22.5464 11.7038 21.84C12.3729 21.1954 13.0745 20.9895 13.9753 20.9825Z" fill="currentColor"/>
<path d="M13.9438 6.94409C14.1614 7.02826 14.2503 7.15033 14.3798 7.3409C14.4382 7.42601 14.4382 7.42601 14.4978 7.51284C14.5379 7.57232 14.578 7.63181 14.6193 7.69309C14.6993 7.81021 14.7793 7.92732 14.8593 8.0444C14.8945 8.09648 14.9297 8.14855 14.966 8.20221C15.0283 8.29258 15.093 8.38138 15.1606 8.46782C15.2318 8.56809 15.2318 8.56809 15.2318 8.68009C15.5484 8.76762 15.8654 8.85326 16.1838 8.93406C16.2392 8.94817 16.2945 8.96229 16.3516 8.97683C16.4654 9.00577 16.5793 9.03449 16.6933 9.06301C16.7481 9.07705 16.8028 9.09109 16.8593 9.10556C16.9085 9.11798 16.9576 9.1304 17.0083 9.1432C17.1358 9.18409 17.1358 9.18409 17.3038 9.29609C17.2827 9.59139 17.1228 9.74488 16.9328 9.95409C16.8715 10.0235 16.8104 10.093 16.7493 10.1626C16.7195 10.1962 16.6898 10.2299 16.6592 10.2645C16.294 10.6832 16.1148 10.9242 16.1346 11.4895C16.1359 11.534 16.1372 11.5785 16.1386 11.6244C16.1429 11.7665 16.1476 11.9085 16.1523 12.0506C16.1553 12.147 16.1582 12.2433 16.1612 12.3397C16.1684 12.5758 16.176 12.812 16.1838 13.0481C15.9252 13.1283 15.7725 13.0727 15.5247 12.9748C15.4889 12.9611 15.453 12.9473 15.4161 12.9331C15.2637 12.8746 15.1118 12.8145 14.96 12.7544C14.8486 12.7106 14.7369 12.6677 14.6252 12.6248C14.559 12.5986 14.4927 12.5725 14.4244 12.5455C14.0354 12.4342 13.7516 12.4759 13.3744 12.6248C13.3384 12.6386 13.3024 12.6524 13.2653 12.6666C13.1517 12.7103 13.0385 12.7548 12.9253 12.7996C12.7755 12.8588 12.6253 12.9171 12.4749 12.9748C12.3758 13.014 12.3758 13.014 12.2747 13.0539C12.091 13.1054 11.9957 13.1039 11.8158 13.0481C11.8184 12.9888 11.821 12.9295 11.8236 12.8684C11.833 12.6473 11.8411 12.4263 11.849 12.2052C11.8525 12.1097 11.8564 12.0142 11.8605 11.9188C11.8665 11.7812 11.8714 11.6436 11.876 11.5059C11.878 11.4635 11.8801 11.4212 11.8823 11.3775C11.8927 11.0068 11.7806 10.7641 11.538 10.4913C11.5069 10.456 11.4759 10.4207 11.4439 10.3844C11.3958 10.3308 11.3958 10.3308 11.3468 10.2761C11.2526 10.1696 11.1584 10.063 11.0647 9.95606C11.0071 9.89125 10.9483 9.82743 10.8882 9.76487C10.8091 9.67934 10.8091 9.67934 10.6958 9.52009C10.7063 9.35909 10.7063 9.35909 10.7518 9.24009C10.8779 9.20406 11.004 9.16806 11.1301 9.13218C11.2381 9.10122 11.3459 9.06979 11.4535 9.03793C11.919 8.90121 11.919 8.90121 12.1568 8.86537C12.5466 8.79566 12.7448 8.67744 12.9764 8.36416C13.0904 8.19727 13.1982 8.0272 13.304 7.85505C13.4292 7.65592 13.5674 7.46669 13.7058 7.27659C13.7522 7.21181 13.7986 7.14699 13.8449 7.08212C13.8776 7.03657 13.9102 6.99102 13.9438 6.94409Z" fill="currentColor"/>
<path d="M22.6616 23.5307C23.3953 24.1176 23.7432 25.0255 23.856 25.9281C23.856 26.3162 23.856 26.7043 23.856 27.1041C21.971 27.1041 20.0861 27.1041 18.144 27.1041C18.1336 26.5682 18.1232 26.0323 18.1125 25.4801C18.1079 25.3117 18.1033 25.1433 18.0986 24.9698C18.0971 24.8354 18.0958 24.701 18.0948 24.5666C18.0922 24.4976 18.0896 24.4285 18.087 24.3574C18.0865 23.8756 18.0865 23.8756 18.253 23.657C18.5868 23.3545 18.9589 23.1778 19.376 23.0161C19.4242 22.997 19.4724 22.9779 19.5221 22.9582C20.5767 22.6061 21.7745 22.8992 22.6616 23.5307Z" fill="currentColor"/>
<path d="M9.40804 23.408C9.44474 23.4309 9.48144 23.4537 9.51925 23.4772C9.71492 23.6177 9.83753 23.7236 9.8955 23.9629C9.90788 24.1637 9.90644 24.3601 9.89979 24.5611C9.89934 24.6256 9.89889 24.6902 9.89843 24.7567C9.89609 24.9967 9.88984 25.2366 9.88404 25.4765C9.8748 26.0136 9.86556 26.5507 9.85604 27.104C7.97108 27.104 6.08612 27.104 4.14404 27.104C4.14404 25.8565 4.16 24.955 4.92804 23.968C4.98175 23.8918 4.98175 23.8918 5.03654 23.814C5.31787 23.5071 5.64737 23.3184 6.02004 23.142C6.05457 23.1256 6.0891 23.1091 6.12467 23.0922C7.17154 22.6145 8.46501 22.7588 9.40804 23.408Z" fill="currentColor"/>
<path d="M15.1305 16.6179C15.5129 16.928 15.791 17.2632 15.904 17.7519C15.9531 18.2501 15.9595 18.7174 15.68 19.1519C15.6562 19.1908 15.6325 19.2297 15.608 19.2698C15.4042 19.5724 15.1573 19.7606 14.84 19.9359C14.8056 19.955 14.7711 19.9741 14.7357 19.9939C14.302 20.1935 13.7485 20.1757 13.307 20.0129C12.7678 19.7587 12.3736 19.3836 12.1424 18.8255C12.0189 18.3528 12.0262 17.7647 12.2386 17.3212C12.5298 16.8585 12.917 16.4581 13.4592 16.318C14.0647 16.228 14.6238 16.261 15.1305 16.6179Z" fill="currentColor"/>
<path d="M21.7663 18.5396C22.1015 18.797 22.3675 19.235 22.444 19.6513C22.5021 20.2265 22.4585 20.7303 22.1128 21.2101C21.9048 21.4579 21.6747 21.6295 21.3918 21.7841C21.3581 21.8031 21.3243 21.8222 21.2896 21.8418C20.8844 22.0317 20.3676 22.0148 19.9408 21.9134C19.3453 21.6934 18.9844 21.3212 18.6959 20.7649C18.5618 20.3278 18.5614 19.6782 18.7353 19.2536C19.0371 18.7209 19.4507 18.3761 20.0373 18.2071C20.6638 18.0692 21.2239 18.2074 21.7663 18.5396Z" fill="currentColor"/>
<path d="M8.80004 18.6647C9.14228 18.9788 9.34492 19.3205 9.37273 19.7899C9.38566 20.3079 9.38593 20.7317 9.07195 21.168C9.02344 21.2443 9.02344 21.2443 8.97395 21.322C8.54566 21.7503 8.08254 21.9579 7.48295 21.9765C6.91036 21.9635 6.46785 21.7821 6.04795 21.392C5.68901 21.0144 5.54047 20.5937 5.52295 20.076C5.54046 19.5588 5.68845 19.1367 6.04795 18.76C6.87565 17.9967 7.92009 17.9691 8.80004 18.6647Z" fill="currentColor"/>
</svg>
