<svg width="28" height="28" viewBox="0 0 28 28" fill="currentColor" xmlns="http://www.w3.org/2000/svg">
<g clip-path="url(#clip0_635_2544)">
<path d="M13.9453 19.7969C13.9814 19.7969 14.0175 19.7969 14.0547 19.7969C14.1102 19.8819 14.1102 19.8819 14.1777 20.0088C14.57 20.685 15.1041 21.2859 15.6122 21.8776C15.745 22.0332 15.8743 22.191 16.0029 22.3501C16.6675 23.1614 17.1484 23.6016 18.2109 23.7344C18.2109 25.142 18.2109 26.5497 18.2109 28C15.4317 28 12.6525 28 9.78906 28C9.78906 26.5923 9.78906 25.1847 9.78906 23.7344C10.1139 23.6802 10.1139 23.6802 10.4453 23.625C11.257 23.326 11.7487 22.7003 12.2793 22.0421C12.378 21.9197 12.4775 21.7982 12.5779 21.6772C12.9041 21.2826 13.2179 20.8816 13.5181 20.4668C13.5634 20.4042 13.5634 20.4042 13.6097 20.3404C13.7363 20.1634 13.8517 19.9939 13.9453 19.7969Z" fill="currentColor"/>
<path d="M12.1405 15.3672C12.1492 15.4089 12.1579 15.4505 12.1668 15.4935C12.2931 16.0525 12.4867 16.5472 12.9608 16.8985C13.4592 17.1914 13.9686 17.261 14.5335 17.1394C14.962 16.9943 15.3311 16.6976 15.5677 16.3125C15.7141 16.0063 15.7992 15.7004 15.8593 15.3672C16.8066 15.3418 17.6957 15.6794 18.3988 16.314C19.1755 17.0533 19.6087 17.9684 19.6492 19.0381C19.6572 19.364 19.6582 19.6899 19.6571 20.0159C19.6566 20.221 19.6582 20.426 19.6599 20.6311C19.66 20.7629 19.66 20.8947 19.6598 21.0265C19.6604 21.0871 19.6611 21.1476 19.6617 21.21C19.6576 21.6669 19.582 22.0596 19.2807 22.4151C19.2344 22.4534 19.1882 22.4918 19.1405 22.5313C19.0965 22.5707 19.0525 22.6102 19.0072 22.6509C18.6607 22.896 18.2937 22.893 17.8827 22.8594C17.3251 22.754 16.9766 22.2931 16.6426 21.8705C16.555 21.7606 16.465 21.6526 16.373 21.5463C16.3276 21.4934 16.2821 21.4406 16.2352 21.3862C16.1934 21.3384 16.1515 21.2905 16.1084 21.2412C16.0233 21.1094 16.0233 21.1094 16.0335 21.0052C16.1242 20.7716 16.3306 20.6101 16.5053 20.4361C16.5449 20.3948 16.5846 20.3536 16.6254 20.3112C16.664 20.2725 16.7025 20.2339 16.7422 20.194C16.7773 20.1585 16.8125 20.1229 16.8487 20.0863C16.953 20.0156 16.953 20.0156 17.0639 20.0203C17.1935 20.0804 17.2634 20.1491 17.3591 20.2551C17.3937 20.2919 17.4283 20.3288 17.4639 20.3667C17.5356 20.4446 17.6068 20.523 17.6775 20.6017C17.8973 20.8372 17.8973 20.8372 18.2034 20.9201C18.3703 20.9027 18.3703 20.9027 18.4774 20.8257C18.5583 20.6954 18.5863 20.6071 18.5936 20.4531C18.4944 20.2632 18.3786 20.1145 18.2289 19.9622C18.189 19.9215 18.1492 19.8808 18.1082 19.8389C18.0653 19.7957 18.0224 19.7525 17.9782 19.708C17.9336 19.6629 17.889 19.6178 17.8431 19.5714C17.7486 19.4762 17.6541 19.3811 17.5594 19.2862C17.4156 19.1418 17.2729 18.9964 17.1302 18.851C17.0381 18.7583 16.9459 18.6658 16.8537 18.5733C16.8116 18.5301 16.7694 18.4869 16.726 18.4424C16.3541 18.0734 15.9478 17.8104 15.4183 17.7564C14.9791 17.7912 14.5789 17.9452 14.2733 18.2656C14.1904 18.3904 14.1229 18.5145 14.0546 18.6485C14.0185 18.6485 13.9824 18.6485 13.9452 18.6485C13.8943 18.5741 13.8471 18.4972 13.8017 18.4195C13.5883 18.0893 13.3485 17.9451 12.9848 17.8111C12.5453 17.7232 12.2099 17.7955 11.8124 17.9922C11.3227 18.3652 10.8925 18.8418 10.4562 19.2745C10.3731 19.3568 10.2897 19.4387 10.206 19.5203C10.0839 19.6394 9.96272 19.7594 9.84172 19.8796C9.80424 19.9158 9.76676 19.952 9.72815 19.9894C9.53005 20.1884 9.40768 20.3214 9.40614 20.6172C9.45897 20.7676 9.48162 20.819 9.62489 20.8906C9.80183 20.9322 9.80183 20.9322 10.0077 20.8906C10.177 20.7623 10.3142 20.6077 10.4555 20.4497C10.5308 20.3665 10.6067 20.2838 10.6834 20.2017C10.733 20.1463 10.733 20.1463 10.7836 20.0898C10.8827 20.0156 10.8827 20.0156 10.9911 20.0195C11.219 20.1244 11.3811 20.322 11.556 20.4976C11.5972 20.5372 11.6385 20.5769 11.6809 20.6177C11.7196 20.6563 11.7582 20.6948 11.7981 20.7345C11.8336 20.7696 11.8692 20.8048 11.9058 20.841C11.9765 20.9453 11.9765 20.9453 11.9677 21.0581C11.8938 21.2285 11.7702 21.358 11.6483 21.4956C11.5931 21.5589 11.538 21.6223 11.483 21.6857C11.4554 21.7174 11.4279 21.7491 11.3995 21.7817C11.2841 21.9174 11.1764 22.059 11.0673 22.1997C10.8173 22.5071 10.5198 22.788 10.1171 22.8594C9.60649 22.9045 9.21971 22.8461 8.81825 22.5176C8.53202 22.1678 8.36231 21.8823 8.3574 21.4248C8.3567 21.3676 8.356 21.3104 8.35527 21.2514C8.35487 21.1897 8.35447 21.1279 8.35405 21.0643C8.35361 21.0001 8.35317 20.9358 8.35271 20.8696C8.35195 20.7332 8.35137 20.5968 8.35094 20.4604C8.35031 20.3224 8.3492 20.1844 8.34757 20.0463C8.33191 18.7157 8.43544 17.5238 9.39112 16.5199C10.1168 15.7947 11.096 15.3045 12.1405 15.3672Z" fill="currentColor"/>
<path d="M5.57812 13.2891C5.76183 13.4606 5.90411 13.6507 6.04639 13.8564C6.48016 14.4726 6.95178 15.0524 7.44455 15.622C7.72583 15.9478 8.00183 16.2789 8.25781 16.625C8.21425 16.7055 8.21425 16.7055 8.1698 16.7876C7.35516 18.3296 7.52899 19.6154 7.49219 21.4922C5.47094 21.4922 3.44969 21.4922 1.36719 21.4922C1.36719 20.0845 1.36719 18.6769 1.36719 17.2266C1.61984 17.1724 1.8725 17.1183 2.13281 17.0625C2.79358 16.7839 3.14666 16.4069 3.5878 15.8568C3.69817 15.7207 3.81116 15.5876 3.92594 15.4552C4.51936 14.7682 5.04902 14.0261 5.57812 13.2891Z" fill="currentColor"/>
<path d="M22.3672 13.2891C22.5987 13.4988 22.7697 13.7515 22.9517 14.0034C23.238 14.3957 23.5295 14.778 23.8438 15.1484C23.8925 15.2061 23.9413 15.2638 23.9901 15.3215C24.0671 15.4125 24.1442 15.5035 24.2215 15.5943C24.3854 15.7869 24.5442 15.9828 24.7017 16.1807C25.2569 16.8556 25.7661 17.069 26.6328 17.2266C26.6328 18.6342 26.6328 20.0419 26.6328 21.4922C24.6116 21.4922 22.5903 21.4922 20.5078 21.4922C20.4898 20.5718 20.4717 19.6514 20.4531 18.7031C20.3305 17.9872 20.3305 17.9872 20.0977 17.3291C20.0815 17.2915 20.0654 17.2538 20.0487 17.215C19.954 16.9963 19.8507 16.7826 19.7422 16.5703C19.7799 16.5299 19.8176 16.4895 19.8565 16.4479C20.1493 16.1325 20.4333 15.8132 20.7031 15.4776C20.801 15.3559 20.8998 15.2351 20.9996 15.1149C21.4847 14.5282 21.9447 13.9227 22.3672 13.2891Z" fill="currentColor"/>
<path d="M3.77361 8.8594C3.77834 8.89253 3.78306 8.92567 3.78793 8.9598C3.85009 9.33052 3.97681 9.62501 4.15643 9.95315C4.17532 9.99333 4.19421 10.0335 4.21368 10.0749C4.28313 10.2041 4.3513 10.2221 4.48455 10.2813C4.5308 10.3162 4.57704 10.3512 4.62469 10.3872C4.95239 10.6093 5.40806 10.711 5.79705 10.6641C6.38002 10.5489 6.80823 10.319 7.14544 9.81878C7.31106 9.51306 7.38883 9.20208 7.43768 8.8594C8.27742 8.78659 9.0694 9.06378 9.73455 9.57034C9.78091 9.60047 9.82728 9.63059 9.87505 9.66163C10.1169 9.83973 10.2604 9.96905 10.3277 10.2685C10.3482 10.5121 10.3411 10.755 10.3327 10.999C10.3297 11.1644 10.3281 11.3297 10.3274 11.4951C10.3271 11.5356 10.3268 11.576 10.3265 11.6177C10.329 12.1893 10.4312 12.7537 10.7087 13.2583C10.7279 13.2948 10.7471 13.3313 10.7669 13.369C10.9545 13.7181 11.1673 14.0162 11.4504 14.294C11.4977 14.3413 11.5451 14.3887 11.5939 14.4375C11.5939 14.4736 11.5939 14.5097 11.5939 14.5469C11.5357 14.5589 11.4775 14.5709 11.4175 14.5832C10.4413 14.7926 9.54178 15.1539 8.85955 15.9141C8.63102 15.8287 8.50327 15.6601 8.35369 15.4766C8.32755 15.4451 8.30141 15.4136 8.27448 15.3812C8.04676 15.1059 7.82281 14.8275 7.60174 14.5469C7.67975 14.3687 7.77494 14.2515 7.9132 14.1154C7.97189 14.0572 7.97189 14.0572 8.03176 13.9979C8.07258 13.958 8.11339 13.9181 8.15545 13.877C8.19669 13.8362 8.23793 13.7955 8.28042 13.7535C8.38207 13.6531 8.48398 13.553 8.58611 13.4531C8.75142 13.5266 8.85958 13.6063 8.98217 13.7388C9.01453 13.7727 9.04688 13.8067 9.08022 13.8416C9.14721 13.9129 9.21386 13.9846 9.28017 14.0565C9.43335 14.2162 9.53084 14.3158 9.74523 14.3826C9.88232 14.3828 9.98833 14.3728 10.1174 14.3281C10.1637 14.1599 10.1846 14.0105 10.1721 13.836C10.1052 13.7244 10.1052 13.7244 10.0068 13.6269C9.97163 13.5892 9.93648 13.5516 9.90026 13.5128C9.86363 13.4751 9.82699 13.4373 9.78924 13.3985C9.75594 13.3634 9.72264 13.3284 9.68833 13.2922C9.58464 13.184 9.47976 13.0771 9.37438 12.9706C9.33603 12.9318 9.29769 12.893 9.25818 12.853C9.17765 12.7718 9.09704 12.6906 9.01635 12.6094C8.93455 12.527 8.853 12.4443 8.7717 12.3614C8.65298 12.2404 8.53355 12.12 8.41393 11.9999C8.3782 11.9632 8.34246 11.9265 8.30565 11.8887C7.94218 11.5269 7.54478 11.2614 7.02068 11.2486C6.58546 11.2522 6.21749 11.3921 5.90643 11.7032C5.80794 11.845 5.71853 11.9907 5.63299 12.1407C5.5229 12.0367 5.45849 11.9578 5.38348 11.8228C5.20157 11.5386 4.8514 11.3697 4.53924 11.2657C4.0621 11.2219 3.67104 11.2625 3.28813 11.5657C3.01853 11.8046 2.76008 12.0524 2.50576 12.3075C2.46524 12.348 2.42472 12.3884 2.38297 12.4301C2.29821 12.5148 2.21352 12.5996 2.12889 12.6845C1.9989 12.8148 1.86863 12.9448 1.73832 13.0747C1.65574 13.1573 1.57317 13.24 1.49062 13.3226C1.4321 13.381 1.4321 13.381 1.37239 13.4405C1.33658 13.4765 1.30077 13.5125 1.26388 13.5496C1.23229 13.5812 1.2007 13.6128 1.16815 13.6454C1.05653 13.7675 1.0397 13.8287 1.02898 13.9966C1.02573 14.1736 1.02573 14.1736 1.14861 14.3281C1.3225 14.4026 1.3225 14.4026 1.53143 14.3828C1.70078 14.2794 1.83102 14.1416 1.96893 14C2.0182 13.9514 2.06748 13.9027 2.11825 13.8526C2.25177 13.7204 2.38416 13.5872 2.5158 13.4531C2.69401 13.5312 2.81125 13.6263 2.94732 13.7646C2.98609 13.8037 3.02486 13.8429 3.06481 13.8832C3.10471 13.924 3.14461 13.9648 3.18572 14.0069C3.22647 14.0481 3.26722 14.0893 3.3092 14.1318C3.40957 14.2335 3.50967 14.3354 3.60955 14.4375C3.51025 14.6486 3.37555 14.8129 3.22332 14.9878C3.02322 15.2199 2.82863 15.4546 2.63885 15.6953C2.32747 16.076 2.03041 16.3043 1.52651 16.3655C1.1072 16.3883 0.768733 16.24 0.420586 16.0166C0.0129504 15.5806 -0.0404299 15.1372 -0.0342175 14.5582C-0.0343494 14.4869 -0.0344813 14.4156 -0.0346172 14.3421C-0.0347726 14.1917 -0.0339793 14.0414 -0.0324685 13.8911C-0.0306136 13.7008 -0.0309515 13.5107 -0.031929 13.3204C-0.0374801 11.998 0.0834286 10.9167 1.05312 9.93414C1.81129 9.20185 2.71246 8.8086 3.77361 8.8594Z" fill="currentColor"/>
<path d="M20.2515 8.85585C20.3391 8.85659 20.3391 8.85659 20.4286 8.85735C20.4728 8.85798 20.517 8.85861 20.5625 8.85927C20.5705 8.90488 20.5786 8.95049 20.5869 8.99748C20.6974 9.55204 20.8845 9.96309 21.3322 10.3205C21.7044 10.5681 22.1361 10.7209 22.5859 10.664C22.9965 10.5697 23.3213 10.4673 23.625 10.1718C23.6611 10.1718 23.6972 10.1718 23.7344 10.1718C23.7496 10.1409 23.7648 10.11 23.7805 10.0782C23.8225 9.99518 23.8657 9.91284 23.9104 9.83125C24.081 9.51182 24.1755 9.21756 24.2266 8.85927C25.1298 8.81603 25.9959 9.0817 26.6867 9.67859C27.415 10.3487 27.9292 11.1545 28.0159 12.1608C28.0224 12.359 28.0242 12.5566 28.0237 12.7549C28.024 12.827 28.0243 12.8991 28.0246 12.9733C28.0251 13.1246 28.0249 13.2759 28.0244 13.4272C28.0238 13.62 28.0249 13.8128 28.0265 14.0056C28.0277 14.1914 28.0273 14.3772 28.0271 14.563C28.0277 14.6317 28.0284 14.7003 28.029 14.771C28.025 15.2759 27.9314 15.6544 27.5625 16.0233C27.1889 16.2713 26.8669 16.3816 26.4141 16.3515C25.9062 16.2309 25.5784 15.9767 25.2485 15.5824C25.2026 15.5284 25.2026 15.5284 25.1557 15.4733C24.8965 15.1679 24.6417 14.8588 24.3906 14.5468C24.4686 14.3686 24.5638 14.2513 24.7021 14.1152C24.7608 14.0571 24.7608 14.0571 24.8206 13.9978C24.8615 13.9579 24.9023 13.918 24.9443 13.8768C24.9856 13.8361 25.0268 13.7954 25.0693 13.7534C25.171 13.653 25.2729 13.5529 25.375 13.453C25.5403 13.5265 25.6485 13.6062 25.7711 13.7386C25.8034 13.7726 25.8358 13.8065 25.8691 13.8415C25.9361 13.9128 26.0027 13.9844 26.0691 14.0564C26.2252 14.2191 26.3202 14.3163 26.5399 14.3819C26.6987 14.3828 26.777 14.3643 26.9062 14.2733C26.9888 14.1083 26.9883 14.0205 26.9609 13.8358C26.8894 13.7336 26.8894 13.7336 26.7946 13.6332C26.7597 13.5947 26.7249 13.5562 26.6889 13.5166C26.5116 13.3273 26.3318 13.1409 26.1494 12.9566C26.1097 12.9164 26.07 12.8763 26.0291 12.8349C25.9458 12.7509 25.8624 12.6669 25.7789 12.5829C25.694 12.4975 25.6095 12.4118 25.5251 12.3258C25.4022 12.2006 25.2786 12.0761 25.1548 11.9517C25.1175 11.9135 25.0803 11.8753 25.042 11.836C24.6899 11.4855 24.319 11.2622 23.813 11.245C23.383 11.2487 23.0811 11.3973 22.7568 11.6723C22.6319 11.823 22.5259 11.9748 22.4219 12.1405C22.2031 11.8671 22.2031 11.8671 22.1108 11.7304C21.8779 11.4786 21.5309 11.2841 21.1859 11.2525C20.5227 11.2362 20.1951 11.4477 19.7218 11.8916C19.4252 12.1744 19.1362 12.4651 18.8469 12.7553C18.7258 12.8766 18.6044 12.9977 18.483 13.1188C18.4059 13.1959 18.3288 13.2731 18.2517 13.3503C18.2155 13.3864 18.1792 13.4226 18.1418 13.4599C18.1085 13.4933 18.0753 13.5268 18.041 13.5612C17.997 13.6052 17.997 13.6052 17.9521 13.6502C17.8045 13.8126 17.8195 13.9515 17.8281 14.164C17.8462 14.2181 17.8642 14.2722 17.8828 14.328C18.0471 14.372 18.1539 14.3976 18.3203 14.3827C18.4927 14.2824 18.6205 14.1432 18.7578 13.9999C18.807 13.9513 18.8562 13.9026 18.9069 13.8525C19.0406 13.7203 19.173 13.5871 19.3047 13.453C19.4829 13.531 19.6001 13.6262 19.7362 13.7645C19.775 13.8036 19.8138 13.8427 19.8537 13.883C19.8936 13.9239 19.9335 13.9647 19.9746 14.0067C20.0154 14.048 20.0561 14.0892 20.0981 14.1317C20.1985 14.2334 20.2986 14.3353 20.3984 14.4374C20.3089 14.6244 20.2034 14.7698 20.0703 14.9296C20.027 14.9818 19.9836 15.0341 19.9389 15.0879C19.8916 15.1445 19.8442 15.2011 19.7969 15.2577C19.7455 15.3194 19.6942 15.3812 19.6429 15.4429C19.5121 15.6001 19.3811 15.7571 19.25 15.914C19.0716 15.8355 18.9523 15.7377 18.8125 15.6029C18.13 14.9874 17.294 14.7105 16.4062 14.5468C16.4784 14.3835 16.552 14.2866 16.6865 14.1708C17.3042 13.5699 17.6527 12.6048 17.6717 11.7547C17.6725 11.6739 17.673 11.5932 17.6732 11.5125C17.6735 11.4714 17.6737 11.4303 17.6739 11.388C17.6746 11.2173 17.6749 11.0467 17.6725 10.876C17.663 10.0628 17.663 10.0628 17.8905 9.82784C17.9956 9.74751 17.9956 9.74751 18.1016 9.67958C18.1315 9.6566 18.1615 9.63362 18.1924 9.60994C18.7863 9.16124 19.4998 8.84759 20.2515 8.85585Z" fill="currentColor"/>
<path d="M19.5781 3.22656C21.4369 3.22656 23.2958 3.22656 25.2109 3.22656C25.2109 6.30772 25.2109 6.30772 24.4077 7.17773C23.8253 7.72632 23.1041 7.98339 22.3125 7.98438C21.4641 7.92795 20.8102 7.59806 20.2241 6.99316C19.3159 5.93264 19.5781 4.5533 19.5781 3.22656Z" fill="currentColor"/>
<path d="M2.78892 3.22656C4.64775 3.22656 6.50658 3.22656 8.42173 3.22656C8.42173 6.29748 8.42173 6.29748 7.57472 7.1991C7.01085 7.72876 6.29393 7.99223 5.5233 7.98438C4.67453 7.92676 4.01819 7.59949 3.43492 6.98975C2.50842 5.90606 2.78892 4.64356 2.78892 3.22656Z" fill="currentColor"/>
<path d="M11.1563 9.78906C13.0331 9.78906 14.91 9.78906 16.8438 9.78906C16.8438 12.802 16.8438 12.802 15.9692 13.7332C15.4291 14.2565 14.7491 14.4891 14.0103 14.5093C13.1926 14.4943 12.5304 14.2051 11.9377 13.6435C10.9239 12.5449 11.1563 11.246 11.1563 9.78906Z" fill="currentColor"/>
<path d="M15.7863 7.10965C16.3118 7.55335 16.6235 8.08369 16.7891 8.75007C16.7891 8.80421 16.7891 8.85835 16.7891 8.91413C14.9483 8.91413 13.1075 8.91413 11.2109 8.91413C11.3736 8.10106 11.6879 7.47321 12.3765 6.98298C13.4697 6.30783 14.7532 6.33256 15.7863 7.10965Z" fill="currentColor"/>
<path d="M24.0879 0.497048C24.7165 0.970671 25.0174 1.54199 25.2109 2.29682C25.2109 2.31487 25.2109 2.33292 25.2109 2.35151C23.3702 2.35151 21.5294 2.35151 19.6328 2.35151C19.7286 1.58495 20.0935 0.967575 20.7046 0.49064C21.7449 -0.217373 23.0502 -0.206202 24.0879 0.497048Z" fill="currentColor"/>
<path d="M7.11215 0.373701C7.69254 0.771885 8.05824 1.25911 8.3125 1.91414C8.33957 2.1307 8.33957 2.1307 8.36719 2.35164C6.52641 2.35164 4.68563 2.35164 2.78906 2.35164C3.043 1.42052 3.41404 0.76236 4.26562 0.273512C5.17649 -0.156364 6.24096 -0.149459 7.11215 0.373701Z" fill="currentColor"/>
<path d="M12.9062 18.6484C13.1032 18.7867 13.1919 18.9036 13.2344 19.1371C13.2787 19.4748 13.0316 19.7529 12.8413 20.0087C12.8022 20.0616 12.7631 20.1145 12.7227 20.1689C12.6931 20.2086 12.6634 20.2482 12.6328 20.289C12.4388 20.2573 12.3493 20.1891 12.2133 20.0495C12.177 20.0127 12.1406 19.9759 12.1032 19.9379C12.0659 19.8992 12.0287 19.8606 11.9902 19.8207C11.9521 19.7819 11.914 19.743 11.8747 19.7029C11.7806 19.607 11.687 19.5107 11.5938 19.414C11.75 19.0858 12.007 18.8496 12.3047 18.645C12.5223 18.577 12.6895 18.5766 12.9062 18.6484Z" fill="currentColor"/>
<path d="M15.8359 18.7561C15.975 18.8811 16.1097 19.0087 16.2422 19.1407C16.2746 19.1729 16.307 19.2052 16.3405 19.2385C16.3622 19.2603 16.3839 19.2822 16.4062 19.3047C16.2918 19.5591 16.113 19.7254 15.9175 19.92C15.8828 19.9555 15.8482 19.991 15.8125 20.0276C15.779 20.0612 15.7454 20.0947 15.7109 20.1293C15.6804 20.16 15.6499 20.1907 15.6184 20.2223C15.5312 20.2891 15.5312 20.2891 15.3672 20.2891C15.2648 20.1727 15.1761 20.0595 15.0869 19.9336C15.062 19.9008 15.0371 19.8679 15.0115 19.8341C14.8322 19.584 14.7754 19.3943 14.7656 19.086C14.8569 18.8805 14.9778 18.6981 15.1895 18.6075C15.4664 18.5767 15.6125 18.585 15.8359 18.7561Z" fill="currentColor"/>
<path d="M21.2189 12.086C21.3839 12.182 21.515 12.2954 21.6017 12.4688C21.6443 12.7445 21.6287 12.9549 21.4701 13.1885C21.4149 13.2606 21.3585 13.3317 21.3009 13.4019C21.2722 13.4388 21.2435 13.4757 21.214 13.5137C21.1437 13.6038 21.0721 13.6927 21.0001 13.7813C20.7463 13.6666 20.5772 13.4899 20.3815 13.2959C20.3455 13.2618 20.3095 13.2276 20.2724 13.1923C20.2218 13.1423 20.2218 13.1423 20.1702 13.0913C20.1392 13.0611 20.1083 13.0308 20.0763 12.9997C20.0157 12.9063 20.0157 12.9063 20.0277 12.7923C20.1381 12.5217 20.4213 12.3193 20.6447 12.1407C20.8388 12.063 21.0157 12.0423 21.2189 12.086Z" fill="currentColor"/>
<path d="M7.21874 12.0859C7.38382 12.1749 7.5175 12.2887 7.65624 12.414C7.69001 12.4428 7.72378 12.4716 7.75857 12.5012C7.85107 12.5849 7.85107 12.5849 7.98437 12.7422C7.9708 12.936 7.88029 13.0297 7.7449 13.1617C7.68965 13.2162 7.68965 13.2162 7.63328 13.2717C7.59461 13.309 7.55595 13.3463 7.51611 13.3847C7.47723 13.4229 7.43835 13.461 7.39829 13.5003C7.30234 13.5943 7.20603 13.6879 7.10937 13.7812C6.7857 13.6733 6.55847 13.2555 6.39843 12.9609C6.34277 12.7782 6.33446 12.6492 6.39843 12.4687C6.59399 12.1355 6.83603 12.0152 7.21874 12.0859Z" fill="currentColor"/>
<path d="M24.008 12.0859C24.296 12.2299 24.5843 12.4793 24.7737 12.7421C24.7531 12.9344 24.6724 13.0279 24.538 13.1617C24.4835 13.2161 24.4835 13.2161 24.4279 13.2717C24.3897 13.309 24.3516 13.3463 24.3122 13.3847C24.2743 13.4228 24.2363 13.461 24.1972 13.5003C23.9133 13.7812 23.9133 13.7812 23.7893 13.7812C23.6923 13.6576 23.6016 13.5342 23.5124 13.4052C23.4873 13.3696 23.4622 13.334 23.4363 13.2973C23.2383 13.0153 23.1277 12.8205 23.1877 12.4687C23.3852 12.1246 23.623 12.0359 24.008 12.0859Z" fill="currentColor"/>
<path d="M4.42961 12.0859C4.59482 12.1814 4.7258 12.2954 4.81242 12.4687C4.86287 12.8794 4.72893 13.0776 4.4843 13.3984C4.43171 13.4723 4.37928 13.5463 4.32707 13.6205C4.28872 13.6736 4.25037 13.7266 4.21086 13.7812C3.95707 13.6665 3.78795 13.4898 3.59221 13.2958C3.55622 13.2616 3.52023 13.2275 3.48316 13.1922C3.43256 13.1422 3.43256 13.1422 3.38094 13.0912C3.34997 13.061 3.319 13.0307 3.28709 12.9996C3.22649 12.9062 3.22649 12.9062 3.2376 12.7931C3.30059 12.6404 3.39947 12.5496 3.51701 12.4345C3.55966 12.3921 3.60231 12.3496 3.64626 12.3059C3.88457 12.0984 4.11259 12.0244 4.42961 12.0859Z" fill="currentColor"/>
<path d="M13.0156 15.2578C13.107 15.2713 13.107 15.2713 13.2002 15.2852C13.7861 15.3503 14.4015 15.3442 14.9844 15.2578C14.9696 15.5903 14.9317 15.8144 14.7109 16.0781C14.4342 16.3279 14.226 16.3684 13.8633 16.3631C13.587 16.3398 13.4401 16.2291 13.248 16.0371C13.0706 15.7808 13.0156 15.5676 13.0156 15.2578Z" fill="currentColor"/>
<path d="M21.4376 8.69531C21.4878 8.70321 21.538 8.7111 21.5897 8.71924C22.2153 8.81386 22.7269 8.80198 23.3517 8.69531C23.3675 9.00134 23.3631 9.19771 23.1876 9.46094C22.9548 9.68857 22.7465 9.84065 22.4128 9.84546C22.1249 9.82617 21.9347 9.76274 21.7111 9.57031C21.4833 9.26864 21.4305 9.07037 21.4376 8.69531Z" fill="currentColor"/>
<path d="M4.64859 8.69531C4.68976 8.70384 4.73093 8.71237 4.77334 8.72116C5.38084 8.83249 5.95511 8.80518 6.56265 8.69531C6.58985 9.02175 6.52672 9.24228 6.3439 9.51562C6.13632 9.7232 5.92198 9.84084 5.62356 9.84567C5.26212 9.82081 5.04093 9.70208 4.79556 9.43018C4.62467 9.18333 4.64385 8.9841 4.64859 8.69531Z" fill="currentColor"/>
</g>
<defs>
<clipPath id="clip0_635_2544">
<rect width="28" height="28" fill="currentColor"/>
</clipPath>
</defs>
</svg>
