<svg width="206" height="206" viewBox="0 0 206 206" fill="none" xmlns="http://www.w3.org/2000/svg">
<g clip-path="url(#clip0_744_2826)">
<path d="M74.7184 133.322C75.4022 133.319 76.0861 133.316 76.7699 133.313C78.6205 133.306 80.4711 133.306 82.3217 133.308C83.8697 133.31 85.4177 133.307 86.9657 133.305C90.6194 133.299 94.2731 133.3 97.9268 133.304C101.689 133.309 105.451 133.303 109.214 133.292C112.45 133.283 115.687 133.28 118.923 133.283C120.854 133.284 122.784 133.283 124.714 133.276C126.53 133.27 128.346 133.271 130.162 133.279C130.826 133.28 131.49 133.279 132.154 133.275C136.789 133.247 140.859 133.602 144.419 136.901C148.501 141.667 147.099 148.45 146.655 154.214C146.593 155.005 146.53 155.795 146.468 156.586C146.404 157.412 146.34 158.239 146.277 159.065C146.144 160.785 146.01 162.506 145.875 164.226C145.701 166.427 145.531 168.629 145.362 170.831C145.231 172.532 145.099 174.234 144.966 175.935C144.903 176.747 144.84 177.559 144.778 178.372C144.69 179.504 144.601 180.637 144.512 181.769C144.473 182.268 144.473 182.268 144.434 182.777C144.297 184.495 144.102 186.175 143.788 187.872C144.101 187.867 144.414 187.863 144.736 187.858C147.693 187.817 150.651 187.785 153.609 187.765C155.129 187.755 156.65 187.74 158.17 187.717C159.639 187.694 161.108 187.682 162.578 187.677C163.407 187.671 164.235 187.655 165.064 187.639C168.087 187.638 170.348 187.809 172.628 189.932C174.7 192.589 175.007 194.884 174.688 198.172C173.88 200.92 172.225 202.526 169.808 203.988C168.709 204.439 167.855 204.457 166.668 204.459C166.207 204.462 165.747 204.465 165.272 204.468C164.766 204.467 164.26 204.466 163.739 204.465C162.933 204.468 162.933 204.468 162.11 204.471C160.617 204.477 159.124 204.478 157.631 204.478C156.021 204.478 154.411 204.484 152.801 204.489C149.281 204.498 145.76 204.501 142.239 204.503C140.041 204.505 137.843 204.507 135.644 204.51C129.558 204.518 123.472 204.525 117.386 204.526C116.997 204.526 116.607 204.527 116.206 204.527C115.416 204.527 114.626 204.527 113.837 204.527C113.445 204.527 113.053 204.527 112.649 204.527C112.256 204.527 111.864 204.527 111.459 204.528C105.1 204.529 98.7398 204.54 92.38 204.556C85.8508 204.571 79.3217 204.579 72.7925 204.579C69.1265 204.58 65.4605 204.583 61.7945 204.595C58.6728 204.605 55.5512 204.608 52.4294 204.602C50.8369 204.599 49.2445 204.599 47.652 204.609C45.9247 204.619 44.1978 204.613 42.4705 204.605C41.7172 204.613 41.7172 204.613 40.9485 204.622C38.0259 204.593 36.0304 204.235 33.7841 202.292C31.6167 200.011 31.1196 197.863 31.1818 194.789C31.4412 192.502 32.3375 190.936 33.9901 189.365C35.8346 188.167 36.9646 187.769 39.2001 187.778C39.7114 187.778 40.2226 187.779 40.7494 187.779C41.3052 187.783 41.861 187.787 42.4168 187.792C42.9872 187.793 43.5575 187.794 44.1278 187.795C45.6261 187.798 47.1243 187.806 48.6225 187.815C50.1525 187.824 51.6825 187.828 53.2125 187.832C56.2124 187.841 59.2122 187.855 62.2121 187.872C62.1337 187.156 62.1337 187.156 62.0537 186.426C61.55 181.773 61.127 177.119 60.7669 172.453C60.7127 171.757 60.6584 171.062 60.6042 170.366C60.4919 168.924 60.3806 167.482 60.2698 166.04C60.1289 164.209 59.985 162.377 59.8403 160.546C59.7278 159.116 59.6174 157.685 59.5074 156.255C59.4553 155.58 59.4024 154.905 59.3487 154.23C58.3618 141.778 58.3618 141.778 60.5641 138.432C61.5684 137.273 61.5684 137.273 62.6241 136.372C63.0957 135.939 63.0957 135.939 63.5769 135.496C67.0374 133.082 70.67 133.309 74.7184 133.322ZM96.4596 155.684C94.9053 157.97 94.5442 159.781 94.9001 162.494C95.4592 164.693 96.6184 166.457 98.3957 167.869C100.514 169.094 102.664 169.282 105.06 168.92C107.586 168.244 109.031 166.805 110.361 164.592C111.389 162.327 111.55 160.076 110.828 157.693C109.876 155.535 108.147 154.287 106.167 153.109C102.452 152.245 99.0826 152.779 96.4596 155.684Z" fill="#BFBFBF"/>
<path d="M121.9 7.622C122.47 8.09855 123.037 8.57905 123.6 9.064C124.002 9.37788 124.002 9.37788 124.413 9.69809C130.811 14.8626 134.557 22.6212 135.475 30.7141C135.646 33.0894 135.629 35.4722 135.625 37.8525C135.625 38.1373 135.624 38.4221 135.624 38.7156C135.586 51.7642 132.799 63.954 124.836 74.572C124.43 75.1193 124.43 75.1193 124.017 75.6776C122.442 77.7153 120.727 79.6243 118.991 81.5245C118.785 81.7503 118.579 81.9761 118.367 82.2087C115.039 85.796 110.891 87.8357 105.935 88.1455C105.647 88.1529 105.358 88.1603 105.06 88.168C104.746 88.1839 104.431 88.1999 104.107 88.2163C98.8076 88.3692 93.5427 87.4697 89.3782 83.9965C88.8274 83.4748 88.2873 82.9416 87.756 82.4C87.4395 82.0782 87.1229 81.7563 86.7968 81.4247C73.8287 67.6818 69.9224 51.6528 70.3892 33.1728C70.7888 23.9492 74.5571 16.2708 81.164 9.888C92.4604 -0.119791 109.656 -1.69239 121.9 7.622Z" fill="#BFBFBF"/>
<path d="M83.224 90.64C84.3572 91.1667 84.3572 91.1667 85.5189 91.9082C86.1692 92.3169 86.1692 92.3169 86.8326 92.7339C87.059 92.8798 87.2854 93.0256 87.5186 93.1759C88.2262 93.6314 88.938 94.0794 89.6514 94.5257C91.5065 95.6878 93.3538 96.8621 95.2013 98.0361C96.3208 98.7442 97.4452 99.4436 98.571 100.142C98.9014 100.355 99.2318 100.568 99.5722 100.788C99.8812 100.979 100.19 101.17 100.509 101.366C100.905 101.617 100.905 101.617 101.309 101.874C102.569 102.313 103.366 102.108 104.648 101.764C105.921 101.139 105.921 101.139 107.196 100.322C107.432 100.177 107.668 100.032 107.911 99.8825C108.413 99.5736 108.913 99.2629 109.412 98.9505C110.189 98.4647 110.969 97.9841 111.75 97.5048C113.912 96.1762 116.066 94.8348 118.215 93.4854C118.494 93.3128 118.772 93.1402 119.059 92.9623C119.754 92.5315 120.445 92.0946 121.136 91.6571C122.57 90.9505 123.647 90.6549 125.248 90.64C126.183 91.1663 126.183 91.1663 126.896 92.288C127.078 92.9449 127.24 93.6073 127.39 94.2724C128.028 96.9292 128.767 99.2733 130.604 101.352C134.203 103.514 138.443 104.391 142.477 105.422C144.946 106.065 147.328 106.932 149.71 107.841C150.314 108.069 150.314 108.069 150.931 108.303C153.725 109.388 156.267 110.589 158.62 112.476C158.961 112.745 159.303 113.013 159.655 113.29C165.403 118.132 169.141 124.322 170.156 131.84C170.382 134.793 170.34 137.76 170.335 140.719C170.336 141.572 170.339 142.424 170.341 143.277C170.345 145.055 170.344 146.832 170.34 148.609C170.335 150.882 170.343 153.154 170.355 155.426C170.363 157.183 170.363 158.94 170.36 160.697C170.36 161.535 170.363 162.373 170.368 163.211C170.374 164.382 170.37 165.553 170.363 166.724C170.367 167.066 170.371 167.407 170.375 167.76C170.337 170.737 169.463 172.887 167.375 175.023C164.27 177.112 161.649 177.331 158.002 177.237C157.585 177.232 157.167 177.226 156.737 177.22C155.716 177.206 154.696 177.186 153.676 177.16C153.844 174.09 154.012 171.019 154.181 167.949C154.239 166.906 154.296 165.864 154.353 164.821C154.435 163.315 154.518 161.808 154.601 160.302C154.626 159.843 154.651 159.384 154.677 158.911C154.828 156.186 155.015 153.466 155.235 150.745C155.74 143.98 155.768 137.33 151.204 131.84C150.972 131.557 150.74 131.275 150.501 130.984C147.615 127.8 143.528 125.474 139.256 124.836C137.405 124.798 135.564 124.898 133.715 124.984C132.341 125.019 130.967 125.049 129.594 125.077C128.167 125.108 126.745 125.156 125.32 125.239C116.058 125.756 116.058 125.756 113.486 123.506C111.737 121.289 110.56 118.861 109.567 116.227C109.259 115.291 109.259 115.291 108.356 114.948C106.581 114.837 104.803 114.853 103.026 114.845C102.529 114.837 102.032 114.828 101.52 114.819C100.807 114.816 100.807 114.816 100.079 114.813C99.4234 114.807 99.4234 114.807 98.7545 114.801C97.4461 114.974 97.2255 115.187 96.408 116.184C95.9925 117.082 95.9925 117.082 95.6421 118.085C94.6131 120.517 93.5369 122.722 91.464 124.424C87.8188 125.743 83.7227 125.311 79.9054 125.109C78.2098 125.027 76.5126 124.999 74.8154 124.968C73.4932 124.942 72.174 124.905 70.8529 124.845C65.6381 124.644 61.1466 126.037 57.0684 129.384C53.0497 133.2 50.822 137.501 50.5746 143.072C50.4755 147.382 50.7976 151.666 51.1468 155.959C51.5101 160.507 51.7425 165.059 51.9635 169.615C51.9817 169.99 52 170.366 52.0188 170.752C52.1223 172.888 52.2239 175.024 52.324 177.16C50.8992 177.209 49.4748 177.237 48.0495 177.263C47.6517 177.277 47.2539 177.291 46.844 177.305C43.7472 177.346 40.7231 176.936 38.3379 174.791C36.0917 172.352 35.7208 170.099 35.7243 166.884C35.7215 166.516 35.7187 166.149 35.7159 165.77C35.708 164.556 35.7064 163.341 35.7055 162.127C35.7029 161.277 35.7001 160.428 35.6972 159.578C35.6923 157.795 35.6908 156.012 35.6913 154.228C35.6913 151.96 35.6801 149.692 35.6659 147.423C35.6567 145.666 35.6551 143.909 35.6555 142.152C35.6545 141.317 35.651 140.481 35.6445 139.646C35.5758 129.786 37.5706 122.034 44.6521 114.766C48.5391 111.079 52.964 108.922 58.0033 107.216C58.8366 106.932 59.6654 106.637 60.4941 106.34C63.1119 105.411 65.6981 104.57 68.4081 103.943C72.7754 103.03 72.7754 103.03 76.1455 100.353C77.3724 98.0709 78.0872 95.7026 78.7893 93.2206C79.6059 90.8002 80.8237 90.4342 83.224 90.64Z" fill="#BFBFBF"/>
<path d="M83.224 90.64C83.0031 90.742 82.7821 90.844 82.5545 90.949C81.3435 91.5864 80.2339 92.3417 79.104 93.112C79.9967 90.6252 80.6345 90.5837 83.224 90.64Z" fill="#BFBFBF"/>
<circle cx="36.3179" cy="174.445" r="32.7457" fill="white"/>
<path d="M40.4857 150.928C27.8274 150.928 17.5637 161.191 17.5637 173.85C17.5637 186.508 27.8274 196.772 40.4857 196.772C53.1439 196.772 63.4076 186.508 63.4076 173.85C63.4076 161.191 53.1439 150.928 40.4857 150.928ZM50.3094 175.078C50.3094 175.303 50.1252 175.487 49.9001 175.487H42.123V183.264C42.123 183.489 41.9388 183.673 41.7136 183.673H39.2577C39.0326 183.673 38.8484 183.489 38.8484 183.264V175.487H31.0713C30.8462 175.487 30.662 175.303 30.662 175.078V172.622C30.662 172.397 30.8462 172.212 31.0713 172.212H38.8484V164.435C38.8484 164.21 39.0326 164.026 39.2577 164.026H41.7136C41.9388 164.026 42.123 164.21 42.123 164.435V172.212H49.9001C50.1252 172.212 50.3094 172.397 50.3094 172.622V175.078Z" fill="#BFBFBF"/>
</g>
<defs>
<clipPath id="clip0_744_2826">
<rect width="206" height="206" fill="white"/>
</clipPath>
</defs>
</svg>
